<mxfile host="65bd71144e">
    <diagram id="XrlCPoU90Yz38b77uYmN" name="Page-1">
        <mxGraphModel dx="1081" dy="989" grid="1" gridSize="10" guides="1" tooltips="1" connect="1" arrows="1" fold="1" page="0" pageScale="1" pageWidth="827" pageHeight="1169" background="none" math="0" shadow="0">
            <root>
                <mxCell id="0"/>
                <mxCell id="1" parent="0"/>
                <mxCell id="318" value="" style="shape=internalStorage;whiteSpace=wrap;html=1;backgroundOutline=1;dx=40;dy=40;strokeWidth=2;strokeColor=#FFFFFF;fillColor=none;" parent="1" vertex="1">
                    <mxGeometry x="-200" y="-20" width="240" height="200" as="geometry"/>
                </mxCell>
                <mxCell id="319" style="edgeStyle=none;html=1;exitX=0.75;exitY=1;exitDx=0;exitDy=0;fontColor=#FF6D6D;strokeWidth=2;" parent="1" source="320" target="328" edge="1">
                    <mxGeometry relative="1" as="geometry"/>
                </mxCell>
                <mxCell id="904" style="edgeStyle=orthogonalEdgeStyle;html=1;entryX=0;entryY=0.5;entryDx=0;entryDy=0;endArrow=none;endFill=0;strokeColor=#FFFFFF;strokeWidth=2;" parent="1" source="320" target="846" edge="1">
                    <mxGeometry relative="1" as="geometry">
                        <Array as="points">
                            <mxPoint x="-240" y="-10.000000000000114"/>
                            <mxPoint x="-240" y="690"/>
                        </Array>
                    </mxGeometry>
                </mxCell>
                <mxCell id="905" style="edgeStyle=orthogonalEdgeStyle;html=1;entryX=0;entryY=0.5;entryDx=0;entryDy=0;endArrow=none;endFill=0;strokeColor=#FFFFFF;strokeWidth=2;" parent="1" source="320" target="906" edge="1">
                    <mxGeometry relative="1" as="geometry">
                        <Array as="points">
                            <mxPoint x="-240" y="-10"/>
                            <mxPoint x="-240" y="620"/>
                            <mxPoint x="380" y="620"/>
                            <mxPoint x="380" y="590"/>
                        </Array>
                    </mxGeometry>
                </mxCell>
                <mxCell id="320" value="&lt;font color=&quot;#ffff6d&quot;&gt;PK&lt;/font&gt;" style="text;html=1;strokeColor=none;fillColor=none;align=center;verticalAlign=middle;whiteSpace=wrap;rounded=0;fontStyle=1;strokeWidth=2;" parent="1" vertex="1">
                    <mxGeometry x="-200" y="-20" width="40" height="20" as="geometry"/>
                </mxCell>
                <mxCell id="321" value="&lt;font color=&quot;#ffff6d&quot;&gt;id&lt;/font&gt;" style="text;html=1;strokeColor=none;fillColor=none;align=left;verticalAlign=middle;whiteSpace=wrap;rounded=0;strokeWidth=2;" parent="1" vertex="1">
                    <mxGeometry x="-150" y="-20" width="110" height="20" as="geometry"/>
                </mxCell>
                <mxCell id="322" value="&lt;font color=&quot;#ff6d6d&quot;&gt;INT&lt;/font&gt;" style="text;html=1;strokeColor=none;fillColor=none;align=left;verticalAlign=middle;whiteSpace=wrap;rounded=0;strokeWidth=2;" parent="1" vertex="1">
                    <mxGeometry x="-40" width="80" height="20" as="geometry"/>
                </mxCell>
                <mxCell id="323" value="&lt;font color=&quot;#729fcf&quot;&gt;nombre&lt;/font&gt;" style="text;html=1;strokeColor=none;fillColor=none;align=left;verticalAlign=middle;whiteSpace=wrap;rounded=0;strokeWidth=2;" parent="1" vertex="1">
                    <mxGeometry x="-150" y="20" width="110" height="20" as="geometry"/>
                </mxCell>
                <mxCell id="324" value="&lt;font color=&quot;#729fcf&quot;&gt;VARCHAR&lt;/font&gt;" style="text;html=1;strokeColor=none;fillColor=none;align=left;verticalAlign=middle;whiteSpace=wrap;rounded=0;strokeWidth=2;" parent="1" vertex="1">
                    <mxGeometry x="-40" y="20" width="80" height="20" as="geometry"/>
                </mxCell>
                <mxCell id="325" value="&lt;font color=&quot;#77bc65&quot;&gt;socios&lt;/font&gt;" style="rounded=0;whiteSpace=wrap;html=1;strokeWidth=2;strokeColor=#FFFFFF;fillColor=none;" parent="1" vertex="1">
                    <mxGeometry x="-200" y="-40" width="240" height="20" as="geometry"/>
                </mxCell>
                <mxCell id="326" value="&lt;font color=&quot;#ffff6d&quot;&gt;INT (NN AI)&lt;/font&gt;" style="text;html=1;strokeColor=none;fillColor=none;align=left;verticalAlign=middle;whiteSpace=wrap;rounded=0;strokeWidth=2;" parent="1" vertex="1">
                    <mxGeometry x="-40" y="-20" width="80" height="20" as="geometry"/>
                </mxCell>
                <mxCell id="327" value="&lt;font color=&quot;#ff6d6d&quot;&gt;id_listas_ongs&lt;/font&gt;" style="text;html=1;strokeColor=none;fillColor=none;align=left;verticalAlign=middle;whiteSpace=wrap;rounded=0;strokeWidth=2;" parent="1" vertex="1">
                    <mxGeometry x="-150" width="110" height="20" as="geometry"/>
                </mxCell>
                <mxCell id="328" value="&lt;font color=&quot;#ff6d6d&quot;&gt;FK&lt;/font&gt;" style="text;html=1;strokeColor=none;fillColor=none;align=center;verticalAlign=middle;whiteSpace=wrap;rounded=0;fontStyle=1;strokeWidth=2;" parent="1" vertex="1">
                    <mxGeometry x="-200" width="40" height="20" as="geometry"/>
                </mxCell>
                <mxCell id="329" value="&lt;font color=&quot;#729fcf&quot;&gt;apellidos&lt;/font&gt;" style="text;html=1;strokeColor=none;fillColor=none;align=left;verticalAlign=middle;whiteSpace=wrap;rounded=0;strokeWidth=2;" parent="1" vertex="1">
                    <mxGeometry x="-150" y="40" width="110" height="20" as="geometry"/>
                </mxCell>
                <mxCell id="330" value="&lt;font color=&quot;#729fcf&quot;&gt;nif&lt;/font&gt;" style="text;html=1;strokeColor=none;fillColor=none;align=left;verticalAlign=middle;whiteSpace=wrap;rounded=0;strokeWidth=2;" parent="1" vertex="1">
                    <mxGeometry x="-150" y="60" width="110" height="20" as="geometry"/>
                </mxCell>
                <mxCell id="331" value="&lt;font color=&quot;#729fcf&quot;&gt;fecha_nacimiento&lt;/font&gt;" style="text;html=1;strokeColor=none;fillColor=none;align=left;verticalAlign=middle;whiteSpace=wrap;rounded=0;strokeWidth=2;" parent="1" vertex="1">
                    <mxGeometry x="-150" y="80" width="110" height="20" as="geometry"/>
                </mxCell>
                <mxCell id="332" value="&lt;font color=&quot;#729fcf&quot;&gt;telefono&lt;/font&gt;" style="text;html=1;strokeColor=none;fillColor=none;align=left;verticalAlign=middle;whiteSpace=wrap;rounded=0;strokeWidth=2;" parent="1" vertex="1">
                    <mxGeometry x="-150" y="100" width="110" height="20" as="geometry"/>
                </mxCell>
                <mxCell id="333" value="&lt;font color=&quot;#729fcf&quot;&gt;correo_electronico&lt;/font&gt;" style="text;html=1;strokeColor=none;fillColor=none;align=left;verticalAlign=middle;whiteSpace=wrap;rounded=0;strokeWidth=2;" parent="1" vertex="1">
                    <mxGeometry x="-150" y="120" width="110" height="20" as="geometry"/>
                </mxCell>
                <mxCell id="334" value="&lt;font color=&quot;#729fcf&quot;&gt;tipo_colaboracion&lt;/font&gt;" style="text;html=1;strokeColor=none;fillColor=none;align=left;verticalAlign=middle;whiteSpace=wrap;rounded=0;strokeWidth=2;" parent="1" vertex="1">
                    <mxGeometry x="-150" y="140" width="110" height="20" as="geometry"/>
                </mxCell>
                <mxCell id="335" value="&lt;font color=&quot;#729fcf&quot;&gt;fecha_registro&lt;/font&gt;" style="text;html=1;strokeColor=none;fillColor=none;align=left;verticalAlign=middle;whiteSpace=wrap;rounded=0;strokeWidth=2;" parent="1" vertex="1">
                    <mxGeometry x="-150" y="160" width="110" height="20" as="geometry"/>
                </mxCell>
                <mxCell id="336" value="&lt;font color=&quot;#729fcf&quot;&gt;VARCHAR&lt;/font&gt;" style="text;html=1;strokeColor=none;fillColor=none;align=left;verticalAlign=middle;whiteSpace=wrap;rounded=0;strokeWidth=2;" parent="1" vertex="1">
                    <mxGeometry x="-40" y="40" width="80" height="20" as="geometry"/>
                </mxCell>
                <mxCell id="337" value="&lt;font color=&quot;#729fcf&quot;&gt;CHAR&lt;/font&gt;" style="text;html=1;strokeColor=none;fillColor=none;align=left;verticalAlign=middle;whiteSpace=wrap;rounded=0;strokeWidth=2;" parent="1" vertex="1">
                    <mxGeometry x="-40" y="60" width="80" height="20" as="geometry"/>
                </mxCell>
                <mxCell id="338" value="&lt;font color=&quot;#729fcf&quot;&gt;TIME&lt;/font&gt;" style="text;html=1;strokeColor=none;fillColor=none;align=left;verticalAlign=middle;whiteSpace=wrap;rounded=0;strokeWidth=2;" parent="1" vertex="1">
                    <mxGeometry x="-40" y="80" width="80" height="20" as="geometry"/>
                </mxCell>
                <mxCell id="339" value="&lt;font color=&quot;#729fcf&quot;&gt;BIGINT&lt;/font&gt;" style="text;html=1;strokeColor=none;fillColor=none;align=left;verticalAlign=middle;whiteSpace=wrap;rounded=0;strokeWidth=2;" parent="1" vertex="1">
                    <mxGeometry x="-40" y="100" width="80" height="20" as="geometry"/>
                </mxCell>
                <mxCell id="340" value="&lt;font color=&quot;#729fcf&quot;&gt;VARCHAR&lt;/font&gt;" style="text;html=1;strokeColor=none;fillColor=none;align=left;verticalAlign=middle;whiteSpace=wrap;rounded=0;strokeWidth=2;" parent="1" vertex="1">
                    <mxGeometry x="-40" y="120" width="80" height="20" as="geometry"/>
                </mxCell>
                <mxCell id="341" value="&lt;font color=&quot;#729fcf&quot;&gt;TIMESTAMP&lt;/font&gt;" style="text;html=1;strokeColor=none;fillColor=none;align=left;verticalAlign=middle;whiteSpace=wrap;rounded=0;strokeWidth=2;" parent="1" vertex="1">
                    <mxGeometry x="-40" y="160" width="80" height="20" as="geometry"/>
                </mxCell>
                <mxCell id="342" value="&lt;font color=&quot;#729fcf&quot;&gt;VARCHAR&lt;/font&gt;" style="text;html=1;strokeColor=none;fillColor=none;align=left;verticalAlign=middle;whiteSpace=wrap;rounded=0;strokeWidth=2;" parent="1" vertex="1">
                    <mxGeometry x="-40" y="140" width="80" height="20" as="geometry"/>
                </mxCell>
                <mxCell id="343" value="" style="shape=internalStorage;whiteSpace=wrap;html=1;backgroundOutline=1;dx=40;dy=60;strokeWidth=2;strokeColor=#FFFFFF;fillColor=none;" parent="1" vertex="1">
                    <mxGeometry x="-200" y="240" width="240" height="60" as="geometry"/>
                </mxCell>
                <mxCell id="344" style="edgeStyle=none;html=1;exitX=0.75;exitY=1;exitDx=0;exitDy=0;fontColor=#FF6D6D;strokeWidth=2;" parent="1" source="345" target="353" edge="1">
                    <mxGeometry relative="1" as="geometry"/>
                </mxCell>
                <mxCell id="345" value="&lt;font color=&quot;#ffff6d&quot;&gt;PK&lt;/font&gt;" style="text;html=1;strokeColor=none;fillColor=none;align=center;verticalAlign=middle;whiteSpace=wrap;rounded=0;fontStyle=1;strokeWidth=2;" parent="1" vertex="1">
                    <mxGeometry x="-200" y="240" width="40" height="20" as="geometry"/>
                </mxCell>
                <mxCell id="346" value="&lt;font color=&quot;#ffff6d&quot;&gt;id&lt;/font&gt;" style="text;html=1;strokeColor=none;fillColor=none;align=left;verticalAlign=middle;whiteSpace=wrap;rounded=0;strokeWidth=2;" parent="1" vertex="1">
                    <mxGeometry x="-150" y="240" width="110" height="20" as="geometry"/>
                </mxCell>
                <mxCell id="347" value="&lt;font color=&quot;#ff6d6d&quot;&gt;INT&lt;/font&gt;" style="text;html=1;strokeColor=none;fillColor=none;align=left;verticalAlign=middle;whiteSpace=wrap;rounded=0;strokeWidth=2;" parent="1" vertex="1">
                    <mxGeometry x="-40" y="260" width="80" height="20" as="geometry"/>
                </mxCell>
                <mxCell id="350" value="&lt;font color=&quot;#77bc65&quot;&gt;listas_registros_ongs&lt;/font&gt;" style="rounded=0;whiteSpace=wrap;html=1;strokeWidth=2;strokeColor=#FFFFFF;fillColor=none;" parent="1" vertex="1">
                    <mxGeometry x="-200" y="220" width="240" height="20" as="geometry"/>
                </mxCell>
                <mxCell id="354" style="edgeStyle=orthogonalEdgeStyle;html=1;entryX=0;entryY=0.5;entryDx=0;entryDy=0;strokeWidth=2;strokeColor=#FFFFFF;endArrow=none;endFill=0;exitX=0;exitY=0.5;exitDx=0;exitDy=0;" parent="1" source="353" target="320" edge="1">
                    <mxGeometry relative="1" as="geometry">
                        <mxPoint x="-400" y="340" as="sourcePoint"/>
                        <Array as="points">
                            <mxPoint x="-240" y="270"/>
                            <mxPoint x="-240" y="-10"/>
                        </Array>
                    </mxGeometry>
                </mxCell>
                <mxCell id="355" style="edgeStyle=orthogonalEdgeStyle;html=1;entryX=0;entryY=0.5;entryDx=0;entryDy=0;endArrow=none;endFill=0;strokeColor=#FFFFFF;strokeWidth=2;exitX=0;exitY=0.5;exitDx=0;exitDy=0;" parent="1" source="345" target="328" edge="1">
                    <mxGeometry relative="1" as="geometry">
                        <mxPoint x="-220" y="240" as="sourcePoint"/>
                        <Array as="points">
                            <mxPoint x="-220" y="250"/>
                            <mxPoint x="-220" y="10"/>
                        </Array>
                    </mxGeometry>
                </mxCell>
                <mxCell id="351" value="&lt;font color=&quot;#ffff6d&quot;&gt;INT&lt;/font&gt;&lt;span style=&quot;color: rgb(255 , 255 , 109)&quot;&gt;&amp;nbsp;(NN AI)&lt;/span&gt;" style="text;html=1;strokeColor=none;fillColor=none;align=left;verticalAlign=middle;whiteSpace=wrap;rounded=0;strokeWidth=2;" parent="1" vertex="1">
                    <mxGeometry x="-40" y="240" width="80" height="20" as="geometry"/>
                </mxCell>
                <mxCell id="352" value="&lt;font color=&quot;#ff6d6d&quot;&gt;id_socio&lt;/font&gt;" style="text;html=1;strokeColor=none;fillColor=none;align=left;verticalAlign=middle;whiteSpace=wrap;rounded=0;strokeWidth=2;" parent="1" vertex="1">
                    <mxGeometry x="-150" y="260" width="110" height="20" as="geometry"/>
                </mxCell>
                <mxCell id="353" value="&lt;font color=&quot;#ff6d6d&quot;&gt;FK&lt;/font&gt;" style="text;html=1;strokeColor=none;fillColor=none;align=center;verticalAlign=middle;whiteSpace=wrap;rounded=0;fontStyle=1;strokeWidth=2;" parent="1" vertex="1">
                    <mxGeometry x="-200" y="260" width="40" height="20" as="geometry"/>
                </mxCell>
                <mxCell id="356" value="&lt;font color=&quot;#ff6d6d&quot;&gt;FK&lt;/font&gt;" style="text;html=1;strokeColor=none;fillColor=none;align=center;verticalAlign=middle;whiteSpace=wrap;rounded=0;fontStyle=1;strokeWidth=2;" parent="1" vertex="1">
                    <mxGeometry x="-200" y="280" width="40" height="20" as="geometry"/>
                </mxCell>
                <mxCell id="357" value="&lt;span style=&quot;color: rgb(255 , 109 , 109)&quot;&gt;id_ong&lt;/span&gt;" style="text;html=1;strokeColor=none;fillColor=none;align=left;verticalAlign=middle;whiteSpace=wrap;rounded=0;strokeWidth=2;" parent="1" vertex="1">
                    <mxGeometry x="-150" y="280" width="110" height="20" as="geometry"/>
                </mxCell>
                <mxCell id="358" value="&lt;font color=&quot;#ff6d6d&quot;&gt;TINYINT&lt;/font&gt;" style="text;html=1;strokeColor=none;fillColor=none;align=left;verticalAlign=middle;whiteSpace=wrap;rounded=0;strokeWidth=2;" parent="1" vertex="1">
                    <mxGeometry x="-40" y="280" width="80" height="20" as="geometry"/>
                </mxCell>
                <mxCell id="360" value="" style="shape=internalStorage;whiteSpace=wrap;html=1;backgroundOutline=1;dx=40;dy=120;strokeWidth=2;strokeColor=#FFFFFF;fillColor=none;" parent="1" vertex="1">
                    <mxGeometry x="-200" y="380" width="260" height="200" as="geometry"/>
                </mxCell>
                <mxCell id="361" style="edgeStyle=none;html=1;exitX=0.75;exitY=1;exitDx=0;exitDy=0;fontColor=#FF6D6D;strokeWidth=2;" parent="1" source="362" target="370" edge="1">
                    <mxGeometry relative="1" as="geometry"/>
                </mxCell>
                <mxCell id="921" style="edgeStyle=orthogonalEdgeStyle;html=1;entryX=0;entryY=0.5;entryDx=0;entryDy=0;endArrow=none;endFill=0;strokeColor=#FFFFFF;strokeWidth=2;" parent="1" source="362" target="356" edge="1">
                    <mxGeometry relative="1" as="geometry">
                        <Array as="points">
                            <mxPoint x="-220" y="390"/>
                            <mxPoint x="-220" y="290"/>
                        </Array>
                    </mxGeometry>
                </mxCell>
                <mxCell id="923" style="edgeStyle=orthogonalEdgeStyle;html=1;entryX=0;entryY=0.5;entryDx=0;entryDy=0;endArrow=none;endFill=0;strokeColor=#FFFFFF;strokeWidth=2;" parent="1" source="362" target="847" edge="1">
                    <mxGeometry relative="1" as="geometry">
                        <Array as="points">
                            <mxPoint x="-220" y="390"/>
                            <mxPoint x="-220" y="710"/>
                        </Array>
                    </mxGeometry>
                </mxCell>
                <mxCell id="362" value="&lt;font color=&quot;#ffff6d&quot;&gt;PK&lt;/font&gt;" style="text;html=1;strokeColor=none;fillColor=none;align=center;verticalAlign=middle;whiteSpace=wrap;rounded=0;fontStyle=1;strokeWidth=2;" parent="1" vertex="1">
                    <mxGeometry x="-200" y="380" width="40" height="20" as="geometry"/>
                </mxCell>
                <mxCell id="363" value="&lt;font color=&quot;#ffff6d&quot;&gt;id&lt;/font&gt;" style="text;html=1;strokeColor=none;fillColor=none;align=left;verticalAlign=middle;whiteSpace=wrap;rounded=0;strokeWidth=2;" parent="1" vertex="1">
                    <mxGeometry x="-150" y="380" width="110" height="20" as="geometry"/>
                </mxCell>
                <mxCell id="364" value="&lt;font color=&quot;#ff6d6d&quot;&gt;INT&lt;/font&gt;" style="text;html=1;strokeColor=none;fillColor=none;align=left;verticalAlign=middle;whiteSpace=wrap;rounded=0;strokeWidth=2;" parent="1" vertex="1">
                    <mxGeometry x="-40" y="400" width="100" height="20" as="geometry"/>
                </mxCell>
                <mxCell id="365" value="&lt;font color=&quot;#729fcf&quot;&gt;direccion&lt;/font&gt;" style="text;html=1;strokeColor=none;fillColor=none;align=left;verticalAlign=middle;whiteSpace=wrap;rounded=0;strokeWidth=2;" parent="1" vertex="1">
                    <mxGeometry x="-150" y="500" width="110" height="20" as="geometry"/>
                </mxCell>
                <mxCell id="366" value="&lt;font color=&quot;#729fcf&quot;&gt;VARCHAR&lt;/font&gt;" style="text;html=1;strokeColor=none;fillColor=none;align=left;verticalAlign=middle;whiteSpace=wrap;rounded=0;strokeWidth=2;" parent="1" vertex="1">
                    <mxGeometry x="-40" y="500" width="80" height="20" as="geometry"/>
                </mxCell>
                <mxCell id="367" value="&lt;font color=&quot;#77bc65&quot;&gt;ongs&lt;/font&gt;" style="rounded=0;whiteSpace=wrap;html=1;strokeWidth=2;strokeColor=#FFFFFF;fillColor=none;" parent="1" vertex="1">
                    <mxGeometry x="-200" y="360" width="260" height="20" as="geometry"/>
                </mxCell>
                <mxCell id="903" style="edgeStyle=orthogonalEdgeStyle;html=1;entryX=0;entryY=0.5;entryDx=0;entryDy=0;endArrow=none;endFill=0;strokeColor=#FFFFFF;strokeWidth=2;" parent="1" source="368" target="499" edge="1">
                    <mxGeometry relative="1" as="geometry">
                        <Array as="points">
                            <mxPoint x="380" y="390"/>
                            <mxPoint x="380" y="170"/>
                        </Array>
                    </mxGeometry>
                </mxCell>
                <mxCell id="910" style="edgeStyle=orthogonalEdgeStyle;html=1;entryX=0;entryY=0.5;entryDx=0;entryDy=0;endArrow=none;endFill=0;strokeColor=#FFFFFF;strokeWidth=2;" parent="1" source="368" target="818" edge="1">
                    <mxGeometry relative="1" as="geometry">
                        <Array as="points">
                            <mxPoint x="380" y="390"/>
                            <mxPoint x="380" y="550"/>
                        </Array>
                    </mxGeometry>
                </mxCell>
                <mxCell id="911" style="edgeStyle=orthogonalEdgeStyle;html=1;entryX=0;entryY=0.5;entryDx=0;entryDy=0;endArrow=none;endFill=0;strokeColor=#FFFFFF;strokeWidth=2;" parent="1" source="368" target="486" edge="1">
                    <mxGeometry relative="1" as="geometry">
                        <Array as="points">
                            <mxPoint x="380" y="390"/>
                            <mxPoint x="380" y="30"/>
                        </Array>
                    </mxGeometry>
                </mxCell>
                <mxCell id="915" style="edgeStyle=orthogonalEdgeStyle;html=1;entryX=0;entryY=0.5;entryDx=0;entryDy=0;endArrow=none;endFill=0;strokeColor=#FFFFFF;strokeWidth=2;" parent="1" source="368" target="461" edge="1">
                    <mxGeometry relative="1" as="geometry">
                        <Array as="points">
                            <mxPoint x="100" y="390"/>
                            <mxPoint x="100" y="290"/>
                        </Array>
                    </mxGeometry>
                </mxCell>
                <mxCell id="368" value="&lt;span style=&quot;color: rgb(255 , 255 , 109)&quot;&gt;TINYINT (NN AI)&lt;/span&gt;" style="text;html=1;strokeColor=none;fillColor=none;align=left;verticalAlign=middle;whiteSpace=wrap;rounded=0;strokeWidth=2;" parent="1" vertex="1">
                    <mxGeometry x="-40" y="380" width="100" height="20" as="geometry"/>
                </mxCell>
                <mxCell id="369" value="&lt;font color=&quot;#ff6d6d&quot;&gt;id_presidente&lt;/font&gt;" style="text;html=1;strokeColor=none;fillColor=none;align=left;verticalAlign=middle;whiteSpace=wrap;rounded=0;strokeWidth=2;" parent="1" vertex="1">
                    <mxGeometry x="-150" y="400" width="110" height="20" as="geometry"/>
                </mxCell>
                <mxCell id="370" value="&lt;font color=&quot;#ff6d6d&quot;&gt;FK&lt;/font&gt;" style="text;html=1;strokeColor=none;fillColor=none;align=center;verticalAlign=middle;whiteSpace=wrap;rounded=0;fontStyle=1;strokeWidth=2;" parent="1" vertex="1">
                    <mxGeometry x="-200" y="400" width="40" height="20" as="geometry"/>
                </mxCell>
                <mxCell id="371" value="&lt;font color=&quot;#729fcf&quot;&gt;telefono&lt;/font&gt;" style="text;html=1;strokeColor=none;fillColor=none;align=left;verticalAlign=middle;whiteSpace=wrap;rounded=0;strokeWidth=2;" parent="1" vertex="1">
                    <mxGeometry x="-150" y="520" width="110" height="20" as="geometry"/>
                </mxCell>
                <mxCell id="372" value="&lt;span style=&quot;color: rgb(114 , 159 , 207)&quot;&gt;BIGINT&lt;/span&gt;" style="text;html=1;strokeColor=none;fillColor=none;align=left;verticalAlign=middle;whiteSpace=wrap;rounded=0;strokeWidth=2;" parent="1" vertex="1">
                    <mxGeometry x="-40" y="520" width="80" height="20" as="geometry"/>
                </mxCell>
                <mxCell id="373" value="&lt;span style=&quot;color: rgb(114 , 159 , 207)&quot;&gt;VARCHAR&lt;/span&gt;" style="text;html=1;strokeColor=none;fillColor=none;align=left;verticalAlign=middle;whiteSpace=wrap;rounded=0;strokeWidth=2;" parent="1" vertex="1">
                    <mxGeometry x="-40" y="540" width="80" height="20" as="geometry"/>
                </mxCell>
                <mxCell id="374" value="&lt;font color=&quot;#729fcf&quot;&gt;area_accion&lt;/font&gt;" style="text;html=1;strokeColor=none;fillColor=none;align=left;verticalAlign=middle;whiteSpace=wrap;rounded=0;strokeWidth=2;" parent="1" vertex="1">
                    <mxGeometry x="-150" y="540" width="110" height="20" as="geometry"/>
                </mxCell>
                <mxCell id="378" value="" style="shape=internalStorage;whiteSpace=wrap;html=1;backgroundOutline=1;dx=40;dy=40;strokeWidth=2;strokeColor=#FFFFFF;fillColor=none;" parent="1" vertex="1">
                    <mxGeometry x="120" y="-20" width="240" height="220" as="geometry"/>
                </mxCell>
                <mxCell id="379" style="edgeStyle=none;html=1;exitX=0.75;exitY=1;exitDx=0;exitDy=0;fontColor=#FF6D6D;strokeWidth=2;" parent="1" source="380" target="388" edge="1">
                    <mxGeometry relative="1" as="geometry"/>
                </mxCell>
                <mxCell id="913" style="edgeStyle=orthogonalEdgeStyle;html=1;entryX=0;entryY=0.5;entryDx=0;entryDy=0;endArrow=none;endFill=0;strokeColor=#FFFFFF;strokeWidth=2;" parent="1" source="380" target="462" edge="1">
                    <mxGeometry relative="1" as="geometry">
                        <Array as="points">
                            <mxPoint x="60" y="-10"/>
                            <mxPoint x="60" y="310"/>
                        </Array>
                    </mxGeometry>
                </mxCell>
                <mxCell id="380" value="&lt;font color=&quot;#ffff6d&quot;&gt;PK&lt;/font&gt;" style="text;html=1;strokeColor=none;fillColor=none;align=center;verticalAlign=middle;whiteSpace=wrap;rounded=0;fontStyle=1;strokeWidth=2;" parent="1" vertex="1">
                    <mxGeometry x="120" y="-20" width="40" height="20" as="geometry"/>
                </mxCell>
                <mxCell id="381" value="&lt;font color=&quot;#ffff6d&quot;&gt;id&lt;/font&gt;" style="text;html=1;strokeColor=none;fillColor=none;align=left;verticalAlign=middle;whiteSpace=wrap;rounded=0;strokeWidth=2;" parent="1" vertex="1">
                    <mxGeometry x="170" y="-20" width="110" height="20" as="geometry"/>
                </mxCell>
                <mxCell id="382" value="&lt;font color=&quot;#ff6d6d&quot;&gt;INT&lt;/font&gt;" style="text;html=1;strokeColor=none;fillColor=none;align=left;verticalAlign=middle;whiteSpace=wrap;rounded=0;strokeWidth=2;" parent="1" vertex="1">
                    <mxGeometry x="280" width="80" height="20" as="geometry"/>
                </mxCell>
                <mxCell id="383" value="&lt;font color=&quot;#729fcf&quot;&gt;nombre&lt;/font&gt;" style="text;html=1;strokeColor=none;fillColor=none;align=left;verticalAlign=middle;whiteSpace=wrap;rounded=0;strokeWidth=2;" parent="1" vertex="1">
                    <mxGeometry x="170" y="20" width="110" height="20" as="geometry"/>
                </mxCell>
                <mxCell id="384" value="&lt;font color=&quot;#729fcf&quot;&gt;VARCHAR&lt;/font&gt;" style="text;html=1;strokeColor=none;fillColor=none;align=left;verticalAlign=middle;whiteSpace=wrap;rounded=0;strokeWidth=2;" parent="1" vertex="1">
                    <mxGeometry x="280" y="20" width="80" height="20" as="geometry"/>
                </mxCell>
                <mxCell id="385" value="&lt;font color=&quot;#77bc65&quot;&gt;trabajadores&lt;/font&gt;" style="rounded=0;whiteSpace=wrap;html=1;strokeWidth=2;strokeColor=#FFFFFF;fillColor=none;" parent="1" vertex="1">
                    <mxGeometry x="120" y="-40" width="240" height="20" as="geometry"/>
                </mxCell>
                <mxCell id="386" value="&lt;font color=&quot;#ffff6d&quot;&gt;INT (NN AI)&lt;/font&gt;" style="text;html=1;strokeColor=none;fillColor=none;align=left;verticalAlign=middle;whiteSpace=wrap;rounded=0;strokeWidth=2;" parent="1" vertex="1">
                    <mxGeometry x="280" y="-20" width="80" height="20" as="geometry"/>
                </mxCell>
                <mxCell id="387" value="&lt;font color=&quot;#ff6d6d&quot;&gt;id_lista_trabajdores&lt;/font&gt;" style="text;html=1;strokeColor=none;fillColor=none;align=left;verticalAlign=middle;whiteSpace=wrap;rounded=0;strokeWidth=2;" parent="1" vertex="1">
                    <mxGeometry x="170" width="110" height="20" as="geometry"/>
                </mxCell>
                <mxCell id="388" value="&lt;font color=&quot;#ff6d6d&quot;&gt;FK&lt;/font&gt;" style="text;html=1;strokeColor=none;fillColor=none;align=center;verticalAlign=middle;whiteSpace=wrap;rounded=0;fontStyle=1;strokeWidth=2;" parent="1" vertex="1">
                    <mxGeometry x="120" width="40" height="20" as="geometry"/>
                </mxCell>
                <mxCell id="389" value="&lt;font color=&quot;#729fcf&quot;&gt;apellidos&lt;/font&gt;" style="text;html=1;strokeColor=none;fillColor=none;align=left;verticalAlign=middle;whiteSpace=wrap;rounded=0;strokeWidth=2;" parent="1" vertex="1">
                    <mxGeometry x="170" y="40" width="110" height="20" as="geometry"/>
                </mxCell>
                <mxCell id="390" value="&lt;font color=&quot;#729fcf&quot;&gt;nif&lt;/font&gt;" style="text;html=1;strokeColor=none;fillColor=none;align=left;verticalAlign=middle;whiteSpace=wrap;rounded=0;strokeWidth=2;" parent="1" vertex="1">
                    <mxGeometry x="170" y="60" width="110" height="20" as="geometry"/>
                </mxCell>
                <mxCell id="391" value="&lt;font color=&quot;#729fcf&quot;&gt;fecha_nacimiento&lt;/font&gt;" style="text;html=1;strokeColor=none;fillColor=none;align=left;verticalAlign=middle;whiteSpace=wrap;rounded=0;strokeWidth=2;" parent="1" vertex="1">
                    <mxGeometry x="170" y="80" width="110" height="20" as="geometry"/>
                </mxCell>
                <mxCell id="392" value="&lt;font color=&quot;#729fcf&quot;&gt;telefono&lt;/font&gt;" style="text;html=1;strokeColor=none;fillColor=none;align=left;verticalAlign=middle;whiteSpace=wrap;rounded=0;strokeWidth=2;" parent="1" vertex="1">
                    <mxGeometry x="170" y="100" width="110" height="20" as="geometry"/>
                </mxCell>
                <mxCell id="393" value="&lt;font color=&quot;#729fcf&quot;&gt;correo_electronico&lt;/font&gt;" style="text;html=1;strokeColor=none;fillColor=none;align=left;verticalAlign=middle;whiteSpace=wrap;rounded=0;strokeWidth=2;" parent="1" vertex="1">
                    <mxGeometry x="170" y="120" width="110" height="20" as="geometry"/>
                </mxCell>
                <mxCell id="394" value="&lt;font color=&quot;#729fcf&quot;&gt;iban&lt;/font&gt;" style="text;html=1;strokeColor=none;fillColor=none;align=left;verticalAlign=middle;whiteSpace=wrap;rounded=0;strokeWidth=2;" parent="1" vertex="1">
                    <mxGeometry x="170" y="140" width="110" height="20" as="geometry"/>
                </mxCell>
                <mxCell id="395" value="&lt;font color=&quot;#729fcf&quot;&gt;fecha_registro&lt;/font&gt;" style="text;html=1;strokeColor=none;fillColor=none;align=left;verticalAlign=middle;whiteSpace=wrap;rounded=0;strokeWidth=2;" parent="1" vertex="1">
                    <mxGeometry x="170" y="180" width="110" height="20" as="geometry"/>
                </mxCell>
                <mxCell id="396" value="&lt;font color=&quot;#729fcf&quot;&gt;VARCHAR&lt;/font&gt;" style="text;html=1;strokeColor=none;fillColor=none;align=left;verticalAlign=middle;whiteSpace=wrap;rounded=0;strokeWidth=2;" parent="1" vertex="1">
                    <mxGeometry x="280" y="40" width="80" height="20" as="geometry"/>
                </mxCell>
                <mxCell id="397" value="&lt;font color=&quot;#729fcf&quot;&gt;CHAR&lt;/font&gt;" style="text;html=1;strokeColor=none;fillColor=none;align=left;verticalAlign=middle;whiteSpace=wrap;rounded=0;strokeWidth=2;" parent="1" vertex="1">
                    <mxGeometry x="280" y="60" width="80" height="20" as="geometry"/>
                </mxCell>
                <mxCell id="398" value="&lt;font color=&quot;#729fcf&quot;&gt;TIME&lt;/font&gt;" style="text;html=1;strokeColor=none;fillColor=none;align=left;verticalAlign=middle;whiteSpace=wrap;rounded=0;strokeWidth=2;" parent="1" vertex="1">
                    <mxGeometry x="280" y="80" width="80" height="20" as="geometry"/>
                </mxCell>
                <mxCell id="399" value="&lt;font color=&quot;#729fcf&quot;&gt;BIGINT&lt;/font&gt;" style="text;html=1;strokeColor=none;fillColor=none;align=left;verticalAlign=middle;whiteSpace=wrap;rounded=0;strokeWidth=2;" parent="1" vertex="1">
                    <mxGeometry x="280" y="100" width="80" height="20" as="geometry"/>
                </mxCell>
                <mxCell id="400" value="&lt;font color=&quot;#729fcf&quot;&gt;VARCHAR&lt;/font&gt;" style="text;html=1;strokeColor=none;fillColor=none;align=left;verticalAlign=middle;whiteSpace=wrap;rounded=0;strokeWidth=2;" parent="1" vertex="1">
                    <mxGeometry x="280" y="120" width="80" height="20" as="geometry"/>
                </mxCell>
                <mxCell id="401" value="&lt;font color=&quot;#729fcf&quot;&gt;TIMESTAMP&lt;/font&gt;" style="text;html=1;strokeColor=none;fillColor=none;align=left;verticalAlign=middle;whiteSpace=wrap;rounded=0;strokeWidth=2;" parent="1" vertex="1">
                    <mxGeometry x="280" y="180" width="80" height="20" as="geometry"/>
                </mxCell>
                <mxCell id="402" value="&lt;font color=&quot;#729fcf&quot;&gt;VARCHAR&lt;/font&gt;" style="text;html=1;strokeColor=none;fillColor=none;align=left;verticalAlign=middle;whiteSpace=wrap;rounded=0;strokeWidth=2;" parent="1" vertex="1">
                    <mxGeometry x="280" y="140" width="80" height="20" as="geometry"/>
                </mxCell>
                <mxCell id="453" value="" style="shape=internalStorage;whiteSpace=wrap;html=1;backgroundOutline=1;dx=40;dy=60;strokeWidth=2;strokeColor=#FFFFFF;fillColor=none;" parent="1" vertex="1">
                    <mxGeometry x="120" y="260" width="240" height="60" as="geometry"/>
                </mxCell>
                <mxCell id="454" style="edgeStyle=none;html=1;exitX=0.75;exitY=1;exitDx=0;exitDy=0;fontColor=#FF6D6D;strokeWidth=2;" parent="1" source="455" target="461" edge="1">
                    <mxGeometry relative="1" as="geometry"/>
                </mxCell>
                <mxCell id="914" style="edgeStyle=orthogonalEdgeStyle;html=1;entryX=0;entryY=0.5;entryDx=0;entryDy=0;endArrow=none;endFill=0;strokeColor=#FFFFFF;strokeWidth=2;" parent="1" source="455" target="388" edge="1">
                    <mxGeometry relative="1" as="geometry">
                        <Array as="points">
                            <mxPoint x="80" y="270"/>
                            <mxPoint x="80" y="10"/>
                        </Array>
                    </mxGeometry>
                </mxCell>
                <mxCell id="916" style="edgeStyle=orthogonalEdgeStyle;html=1;entryX=1;entryY=0.5;entryDx=0;entryDy=0;endArrow=none;endFill=0;strokeColor=#FFFFFF;strokeWidth=2;" parent="1" source="455" target="468" edge="1">
                    <mxGeometry relative="1" as="geometry">
                        <Array as="points">
                            <mxPoint x="80" y="270"/>
                            <mxPoint x="80" y="450"/>
                        </Array>
                    </mxGeometry>
                </mxCell>
                <mxCell id="455" value="&lt;font color=&quot;#ffff6d&quot;&gt;PK&lt;/font&gt;" style="text;html=1;strokeColor=none;fillColor=none;align=center;verticalAlign=middle;whiteSpace=wrap;rounded=0;fontStyle=1;strokeWidth=2;" parent="1" vertex="1">
                    <mxGeometry x="120" y="260" width="40" height="20" as="geometry"/>
                </mxCell>
                <mxCell id="456" value="&lt;font color=&quot;#ffff6d&quot;&gt;id&lt;/font&gt;" style="text;html=1;strokeColor=none;fillColor=none;align=left;verticalAlign=middle;whiteSpace=wrap;rounded=0;strokeWidth=2;" parent="1" vertex="1">
                    <mxGeometry x="170" y="260" width="110" height="20" as="geometry"/>
                </mxCell>
                <mxCell id="457" value="&lt;font color=&quot;#ff6d6d&quot;&gt;INT&lt;/font&gt;" style="text;html=1;strokeColor=none;fillColor=none;align=left;verticalAlign=middle;whiteSpace=wrap;rounded=0;strokeWidth=2;" parent="1" vertex="1">
                    <mxGeometry x="280" y="300" width="80" height="20" as="geometry"/>
                </mxCell>
                <mxCell id="458" value="&lt;font color=&quot;#77bc65&quot;&gt;listas_trabajadores&lt;/font&gt;" style="rounded=0;whiteSpace=wrap;html=1;strokeWidth=2;strokeColor=#FFFFFF;fillColor=none;" parent="1" vertex="1">
                    <mxGeometry x="120" y="240" width="240" height="20" as="geometry"/>
                </mxCell>
                <mxCell id="459" value="&lt;font color=&quot;#ffff6d&quot;&gt;INT&lt;/font&gt;&lt;span style=&quot;color: rgb(255 , 255 , 109)&quot;&gt;&amp;nbsp;(NN AI)&lt;/span&gt;" style="text;html=1;strokeColor=none;fillColor=none;align=left;verticalAlign=middle;whiteSpace=wrap;rounded=0;strokeWidth=2;" parent="1" vertex="1">
                    <mxGeometry x="280" y="260" width="80" height="20" as="geometry"/>
                </mxCell>
                <mxCell id="460" value="&lt;font color=&quot;#ff6d6d&quot;&gt;id_trabajador&lt;/font&gt;" style="text;html=1;strokeColor=none;fillColor=none;align=left;verticalAlign=middle;whiteSpace=wrap;rounded=0;strokeWidth=2;" parent="1" vertex="1">
                    <mxGeometry x="170" y="300" width="110" height="20" as="geometry"/>
                </mxCell>
                <mxCell id="461" value="&lt;font color=&quot;#ff6d6d&quot;&gt;FK&lt;/font&gt;" style="text;html=1;strokeColor=none;fillColor=none;align=center;verticalAlign=middle;whiteSpace=wrap;rounded=0;fontStyle=1;strokeWidth=2;" parent="1" vertex="1">
                    <mxGeometry x="120" y="280" width="40" height="20" as="geometry"/>
                </mxCell>
                <mxCell id="462" value="&lt;font color=&quot;#ff6d6d&quot;&gt;FK&lt;/font&gt;" style="text;html=1;strokeColor=none;fillColor=none;align=center;verticalAlign=middle;whiteSpace=wrap;rounded=0;fontStyle=1;strokeWidth=2;" parent="1" vertex="1">
                    <mxGeometry x="120" y="300" width="40" height="20" as="geometry"/>
                </mxCell>
                <mxCell id="463" value="&lt;font color=&quot;#ff6d6d&quot;&gt;id_ong&lt;/font&gt;" style="text;html=1;strokeColor=none;fillColor=none;align=left;verticalAlign=middle;whiteSpace=wrap;rounded=0;strokeWidth=2;" parent="1" vertex="1">
                    <mxGeometry x="170" y="280" width="110" height="20" as="geometry"/>
                </mxCell>
                <mxCell id="464" value="&lt;font color=&quot;#ff6d6d&quot;&gt;TINYINT&lt;/font&gt;" style="text;html=1;strokeColor=none;fillColor=none;align=left;verticalAlign=middle;whiteSpace=wrap;rounded=0;strokeWidth=2;" parent="1" vertex="1">
                    <mxGeometry x="280" y="280" width="80" height="20" as="geometry"/>
                </mxCell>
                <mxCell id="466" value="&lt;font color=&quot;#ff6d6d&quot;&gt;FK&lt;/font&gt;" style="text;html=1;strokeColor=none;fillColor=none;align=center;verticalAlign=middle;whiteSpace=wrap;rounded=0;fontStyle=1;strokeWidth=2;" parent="1" vertex="1">
                    <mxGeometry x="-200" y="440" width="40" height="20" as="geometry"/>
                </mxCell>
                <mxCell id="467" value="&lt;font color=&quot;#ff6d6d&quot;&gt;id_lista_trabajdrs&lt;/font&gt;" style="text;html=1;strokeColor=none;fillColor=none;align=left;verticalAlign=middle;whiteSpace=wrap;rounded=0;strokeWidth=2;" parent="1" vertex="1">
                    <mxGeometry x="-150" y="440" width="110" height="20" as="geometry"/>
                </mxCell>
                <mxCell id="468" value="&lt;font color=&quot;#ff6d6d&quot;&gt;INT&lt;/font&gt;" style="text;html=1;strokeColor=none;fillColor=none;align=left;verticalAlign=middle;whiteSpace=wrap;rounded=0;strokeWidth=2;" parent="1" vertex="1">
                    <mxGeometry x="-40" y="440" width="100" height="20" as="geometry"/>
                </mxCell>
                <mxCell id="470" value="&lt;font color=&quot;#729fcf&quot;&gt;neto_anual&lt;/font&gt;" style="text;html=1;strokeColor=none;fillColor=none;align=left;verticalAlign=middle;whiteSpace=wrap;rounded=0;strokeWidth=2;" parent="1" vertex="1">
                    <mxGeometry x="170" y="160" width="110" height="20" as="geometry"/>
                </mxCell>
                <mxCell id="472" value="&lt;font color=&quot;#729fcf&quot;&gt;INT&lt;/font&gt;" style="text;html=1;strokeColor=none;fillColor=none;align=left;verticalAlign=middle;whiteSpace=wrap;rounded=0;strokeWidth=2;" parent="1" vertex="1">
                    <mxGeometry x="280" y="160" width="80" height="20" as="geometry"/>
                </mxCell>
                <mxCell id="477" value="" style="shape=internalStorage;whiteSpace=wrap;html=1;backgroundOutline=1;dx=40;dy=60;strokeWidth=2;strokeColor=#FFFFFF;fillColor=none;" parent="1" vertex="1">
                    <mxGeometry x="440" y="-20" width="240" height="100" as="geometry"/>
                </mxCell>
                <mxCell id="478" style="edgeStyle=none;html=1;exitX=0.75;exitY=1;exitDx=0;exitDy=0;fontColor=#FF6D6D;strokeWidth=2;" parent="1" source="479" target="485" edge="1">
                    <mxGeometry relative="1" as="geometry"/>
                </mxCell>
                <mxCell id="532" style="edgeStyle=orthogonalEdgeStyle;html=1;entryX=0;entryY=0.5;entryDx=0;entryDy=0;endArrow=none;endFill=0;strokeColor=#FFFFFF;strokeWidth=2;" parent="1" source="479" target="526" edge="1">
                    <mxGeometry relative="1" as="geometry">
                        <Array as="points">
                            <mxPoint x="410" y="-10"/>
                            <mxPoint x="410" y="190"/>
                        </Array>
                    </mxGeometry>
                </mxCell>
                <mxCell id="919" style="edgeStyle=orthogonalEdgeStyle;html=1;entryX=1;entryY=0.25;entryDx=0;entryDy=0;endArrow=none;endFill=0;strokeColor=#FFFFFF;strokeWidth=2;" parent="1" source="479" target="360" edge="1">
                    <mxGeometry relative="1" as="geometry">
                        <Array as="points">
                            <mxPoint x="420" y="-10"/>
                            <mxPoint x="420" y="430"/>
                        </Array>
                    </mxGeometry>
                </mxCell>
                <mxCell id="479" value="&lt;font color=&quot;#ffff6d&quot;&gt;PK&lt;/font&gt;" style="text;html=1;strokeColor=none;fillColor=none;align=center;verticalAlign=middle;whiteSpace=wrap;rounded=0;fontStyle=1;strokeWidth=2;" parent="1" vertex="1">
                    <mxGeometry x="440" y="-20" width="40" height="20" as="geometry"/>
                </mxCell>
                <mxCell id="480" value="&lt;font color=&quot;#ffff6d&quot;&gt;id&lt;/font&gt;" style="text;html=1;strokeColor=none;fillColor=none;align=left;verticalAlign=middle;whiteSpace=wrap;rounded=0;strokeWidth=2;" parent="1" vertex="1">
                    <mxGeometry x="490" y="-20" width="110" height="20" as="geometry"/>
                </mxCell>
                <mxCell id="481" value="&lt;font color=&quot;#ff6d6d&quot;&gt;INT&lt;/font&gt;" style="text;html=1;strokeColor=none;fillColor=none;align=left;verticalAlign=middle;whiteSpace=wrap;rounded=0;strokeWidth=2;" parent="1" vertex="1">
                    <mxGeometry x="600" width="80" height="20" as="geometry"/>
                </mxCell>
                <mxCell id="482" value="&lt;font color=&quot;#77bc65&quot;&gt;listas_presidentes&lt;/font&gt;" style="rounded=0;whiteSpace=wrap;html=1;strokeWidth=2;strokeColor=#FFFFFF;fillColor=none;" parent="1" vertex="1">
                    <mxGeometry x="440" y="-40" width="240" height="20" as="geometry"/>
                </mxCell>
                <mxCell id="483" value="&lt;span style=&quot;color: rgb(255 , 255 , 109)&quot;&gt;INT (NN AI)&lt;/span&gt;" style="text;html=1;strokeColor=none;fillColor=none;align=left;verticalAlign=middle;whiteSpace=wrap;rounded=0;strokeWidth=2;" parent="1" vertex="1">
                    <mxGeometry x="600" y="-20" width="80" height="20" as="geometry"/>
                </mxCell>
                <mxCell id="484" value="&lt;font color=&quot;#ff6d6d&quot;&gt;id_presidente&lt;/font&gt;" style="text;html=1;strokeColor=none;fillColor=none;align=left;verticalAlign=middle;whiteSpace=wrap;rounded=0;strokeWidth=2;" parent="1" vertex="1">
                    <mxGeometry x="490" width="110" height="20" as="geometry"/>
                </mxCell>
                <mxCell id="485" value="&lt;font color=&quot;#ff6d6d&quot;&gt;FK&lt;/font&gt;" style="text;html=1;strokeColor=none;fillColor=none;align=center;verticalAlign=middle;whiteSpace=wrap;rounded=0;fontStyle=1;strokeWidth=2;" parent="1" vertex="1">
                    <mxGeometry x="440" width="40" height="20" as="geometry"/>
                </mxCell>
                <mxCell id="486" value="&lt;font color=&quot;#ff6d6d&quot;&gt;FK&lt;/font&gt;" style="text;html=1;strokeColor=none;fillColor=none;align=center;verticalAlign=middle;whiteSpace=wrap;rounded=0;fontStyle=1;strokeWidth=2;" parent="1" vertex="1">
                    <mxGeometry x="440" y="20" width="40" height="20" as="geometry"/>
                </mxCell>
                <mxCell id="487" value="&lt;font color=&quot;#ff6d6d&quot;&gt;id_ong&lt;/font&gt;" style="text;html=1;strokeColor=none;fillColor=none;align=left;verticalAlign=middle;whiteSpace=wrap;rounded=0;strokeWidth=2;" parent="1" vertex="1">
                    <mxGeometry x="490" y="20" width="110" height="20" as="geometry"/>
                </mxCell>
                <mxCell id="488" value="&lt;span style=&quot;color: rgb(255 , 109 , 109)&quot;&gt;TINYINT&lt;/span&gt;" style="text;html=1;strokeColor=none;fillColor=none;align=left;verticalAlign=middle;whiteSpace=wrap;rounded=0;strokeWidth=2;" parent="1" vertex="1">
                    <mxGeometry x="600" y="20" width="80" height="20" as="geometry"/>
                </mxCell>
                <mxCell id="489" value="" style="shape=internalStorage;whiteSpace=wrap;html=1;backgroundOutline=1;dx=40;dy=60;strokeWidth=2;strokeColor=#FFFFFF;fillColor=none;" parent="1" vertex="1">
                    <mxGeometry x="440" y="140" width="240" height="240" as="geometry"/>
                </mxCell>
                <mxCell id="490" style="edgeStyle=none;html=1;exitX=0.75;exitY=1;exitDx=0;exitDy=0;fontColor=#FF6D6D;strokeWidth=2;" parent="1" source="491" target="499" edge="1">
                    <mxGeometry relative="1" as="geometry"/>
                </mxCell>
                <mxCell id="531" style="edgeStyle=orthogonalEdgeStyle;html=1;entryX=0;entryY=0.5;entryDx=0;entryDy=0;endArrow=none;endFill=0;strokeColor=#FFFFFF;strokeWidth=2;" parent="1" source="491" target="485" edge="1">
                    <mxGeometry relative="1" as="geometry">
                        <Array as="points">
                            <mxPoint x="420" y="150"/>
                            <mxPoint x="420" y="10"/>
                        </Array>
                    </mxGeometry>
                </mxCell>
                <mxCell id="912" style="edgeStyle=orthogonalEdgeStyle;html=1;entryX=0;entryY=0.5;entryDx=0;entryDy=0;endArrow=none;endFill=0;strokeColor=#FFFFFF;strokeWidth=2;" parent="1" source="491" target="819" edge="1">
                    <mxGeometry relative="1" as="geometry">
                        <Array as="points">
                            <mxPoint x="400" y="150"/>
                            <mxPoint x="400" y="570"/>
                        </Array>
                    </mxGeometry>
                </mxCell>
                <mxCell id="918" style="edgeStyle=orthogonalEdgeStyle;html=1;entryX=1;entryY=0.5;entryDx=0;entryDy=0;endArrow=none;endFill=0;strokeColor=#FFFFFF;strokeWidth=2;" parent="1" source="491" target="364" edge="1">
                    <mxGeometry relative="1" as="geometry">
                        <Array as="points">
                            <mxPoint x="400" y="150"/>
                            <mxPoint x="400" y="410"/>
                        </Array>
                    </mxGeometry>
                </mxCell>
                <mxCell id="491" value="&lt;font color=&quot;#ffff6d&quot;&gt;PK&lt;/font&gt;" style="text;html=1;strokeColor=none;fillColor=none;align=center;verticalAlign=middle;whiteSpace=wrap;rounded=0;fontStyle=1;strokeWidth=2;" parent="1" vertex="1">
                    <mxGeometry x="440" y="140" width="40" height="20" as="geometry"/>
                </mxCell>
                <mxCell id="492" value="&lt;font color=&quot;#ffff6d&quot;&gt;id&lt;/font&gt;" style="text;html=1;strokeColor=none;fillColor=none;align=left;verticalAlign=middle;whiteSpace=wrap;rounded=0;strokeWidth=2;" parent="1" vertex="1">
                    <mxGeometry x="490" y="140" width="110" height="20" as="geometry"/>
                </mxCell>
                <mxCell id="493" value="&lt;span style=&quot;color: rgb(255 , 109 , 109)&quot;&gt;TINYINT&lt;/span&gt;" style="text;html=1;strokeColor=none;fillColor=none;align=left;verticalAlign=middle;whiteSpace=wrap;rounded=0;strokeWidth=2;" parent="1" vertex="1">
                    <mxGeometry x="600" y="160" width="80" height="20" as="geometry"/>
                </mxCell>
                <mxCell id="494" value="&lt;font color=&quot;#729fcf&quot;&gt;nombre&lt;/font&gt;" style="text;html=1;strokeColor=none;fillColor=none;align=left;verticalAlign=middle;whiteSpace=wrap;rounded=0;strokeWidth=2;" parent="1" vertex="1">
                    <mxGeometry x="490" y="200" width="110" height="20" as="geometry"/>
                </mxCell>
                <mxCell id="495" value="&lt;font color=&quot;#729fcf&quot;&gt;VARCHAR&lt;/font&gt;" style="text;html=1;strokeColor=none;fillColor=none;align=left;verticalAlign=middle;whiteSpace=wrap;rounded=0;strokeWidth=2;" parent="1" vertex="1">
                    <mxGeometry x="600" y="200" width="80" height="20" as="geometry"/>
                </mxCell>
                <mxCell id="496" value="&lt;font color=&quot;#77bc65&quot;&gt;presidentes&lt;/font&gt;" style="rounded=0;whiteSpace=wrap;html=1;strokeWidth=2;strokeColor=#FFFFFF;fillColor=none;" parent="1" vertex="1">
                    <mxGeometry x="440" y="120" width="240" height="20" as="geometry"/>
                </mxCell>
                <mxCell id="497" value="&lt;font color=&quot;#ffff6d&quot;&gt;INT (NN AI)&lt;/font&gt;" style="text;html=1;strokeColor=none;fillColor=none;align=left;verticalAlign=middle;whiteSpace=wrap;rounded=0;strokeWidth=2;" parent="1" vertex="1">
                    <mxGeometry x="600" y="140" width="80" height="20" as="geometry"/>
                </mxCell>
                <mxCell id="498" value="&lt;span style=&quot;color: rgb(255 , 109 , 109)&quot;&gt;id_ong&lt;/span&gt;" style="text;html=1;strokeColor=none;fillColor=none;align=left;verticalAlign=middle;whiteSpace=wrap;rounded=0;strokeWidth=2;" parent="1" vertex="1">
                    <mxGeometry x="490" y="160" width="110" height="20" as="geometry"/>
                </mxCell>
                <mxCell id="499" value="&lt;font color=&quot;#ff6d6d&quot;&gt;FK&lt;/font&gt;" style="text;html=1;strokeColor=none;fillColor=none;align=center;verticalAlign=middle;whiteSpace=wrap;rounded=0;fontStyle=1;strokeWidth=2;" parent="1" vertex="1">
                    <mxGeometry x="440" y="160" width="40" height="20" as="geometry"/>
                </mxCell>
                <mxCell id="500" value="&lt;font color=&quot;#729fcf&quot;&gt;apellidos&lt;/font&gt;" style="text;html=1;strokeColor=none;fillColor=none;align=left;verticalAlign=middle;whiteSpace=wrap;rounded=0;strokeWidth=2;" parent="1" vertex="1">
                    <mxGeometry x="490" y="220" width="110" height="20" as="geometry"/>
                </mxCell>
                <mxCell id="501" value="&lt;font color=&quot;#729fcf&quot;&gt;nif&lt;/font&gt;" style="text;html=1;strokeColor=none;fillColor=none;align=left;verticalAlign=middle;whiteSpace=wrap;rounded=0;strokeWidth=2;" parent="1" vertex="1">
                    <mxGeometry x="490" y="240" width="110" height="20" as="geometry"/>
                </mxCell>
                <mxCell id="502" value="&lt;font color=&quot;#729fcf&quot;&gt;fecha_nacimiento&lt;/font&gt;" style="text;html=1;strokeColor=none;fillColor=none;align=left;verticalAlign=middle;whiteSpace=wrap;rounded=0;strokeWidth=2;" parent="1" vertex="1">
                    <mxGeometry x="490" y="260" width="110" height="20" as="geometry"/>
                </mxCell>
                <mxCell id="503" value="&lt;font color=&quot;#729fcf&quot;&gt;telefono&lt;/font&gt;" style="text;html=1;strokeColor=none;fillColor=none;align=left;verticalAlign=middle;whiteSpace=wrap;rounded=0;strokeWidth=2;" parent="1" vertex="1">
                    <mxGeometry x="490" y="280" width="110" height="20" as="geometry"/>
                </mxCell>
                <mxCell id="504" value="&lt;font color=&quot;#729fcf&quot;&gt;correo_electronico&lt;/font&gt;" style="text;html=1;strokeColor=none;fillColor=none;align=left;verticalAlign=middle;whiteSpace=wrap;rounded=0;strokeWidth=2;" parent="1" vertex="1">
                    <mxGeometry x="490" y="300" width="110" height="20" as="geometry"/>
                </mxCell>
                <mxCell id="505" value="&lt;span style=&quot;color: rgb(114 , 159 , 207)&quot;&gt;fecha_fin_puesto&lt;/span&gt;" style="text;html=1;strokeColor=none;fillColor=none;align=left;verticalAlign=middle;whiteSpace=wrap;rounded=0;strokeWidth=2;" parent="1" vertex="1">
                    <mxGeometry x="490" y="340" width="110" height="20" as="geometry"/>
                </mxCell>
                <mxCell id="506" value="&lt;font color=&quot;#729fcf&quot;&gt;fecha_inicio_puesto&lt;/font&gt;" style="text;html=1;strokeColor=none;fillColor=none;align=left;verticalAlign=middle;whiteSpace=wrap;rounded=0;strokeWidth=2;" parent="1" vertex="1">
                    <mxGeometry x="490" y="320" width="110" height="20" as="geometry"/>
                </mxCell>
                <mxCell id="507" value="&lt;font color=&quot;#729fcf&quot;&gt;VARCHAR&lt;/font&gt;" style="text;html=1;strokeColor=none;fillColor=none;align=left;verticalAlign=middle;whiteSpace=wrap;rounded=0;strokeWidth=2;" parent="1" vertex="1">
                    <mxGeometry x="600" y="220" width="80" height="20" as="geometry"/>
                </mxCell>
                <mxCell id="508" value="&lt;font color=&quot;#729fcf&quot;&gt;CHAR&lt;/font&gt;" style="text;html=1;strokeColor=none;fillColor=none;align=left;verticalAlign=middle;whiteSpace=wrap;rounded=0;strokeWidth=2;" parent="1" vertex="1">
                    <mxGeometry x="600" y="240" width="80" height="20" as="geometry"/>
                </mxCell>
                <mxCell id="509" value="&lt;font color=&quot;#729fcf&quot;&gt;TIME&lt;/font&gt;" style="text;html=1;strokeColor=none;fillColor=none;align=left;verticalAlign=middle;whiteSpace=wrap;rounded=0;strokeWidth=2;" parent="1" vertex="1">
                    <mxGeometry x="600" y="260" width="80" height="20" as="geometry"/>
                </mxCell>
                <mxCell id="510" value="&lt;font color=&quot;#729fcf&quot;&gt;BIGINT&lt;/font&gt;" style="text;html=1;strokeColor=none;fillColor=none;align=left;verticalAlign=middle;whiteSpace=wrap;rounded=0;strokeWidth=2;" parent="1" vertex="1">
                    <mxGeometry x="600" y="280" width="80" height="20" as="geometry"/>
                </mxCell>
                <mxCell id="511" value="&lt;font color=&quot;#729fcf&quot;&gt;VARCHAR&lt;/font&gt;" style="text;html=1;strokeColor=none;fillColor=none;align=left;verticalAlign=middle;whiteSpace=wrap;rounded=0;strokeWidth=2;" parent="1" vertex="1">
                    <mxGeometry x="600" y="300" width="80" height="20" as="geometry"/>
                </mxCell>
                <mxCell id="512" value="&lt;font color=&quot;#729fcf&quot;&gt;DATETIME&lt;/font&gt;" style="text;html=1;strokeColor=none;fillColor=none;align=left;verticalAlign=middle;whiteSpace=wrap;rounded=0;strokeWidth=2;" parent="1" vertex="1">
                    <mxGeometry x="600" y="320" width="80" height="20" as="geometry"/>
                </mxCell>
                <mxCell id="513" value="&lt;span style=&quot;color: rgb(114 , 159 , 207)&quot;&gt;DATETIME&lt;/span&gt;" style="text;html=1;strokeColor=none;fillColor=none;align=left;verticalAlign=middle;whiteSpace=wrap;rounded=0;strokeWidth=2;" parent="1" vertex="1">
                    <mxGeometry x="600" y="340" width="80" height="20" as="geometry"/>
                </mxCell>
                <mxCell id="517" value="&lt;span style=&quot;color: rgb(114 , 159 , 207)&quot;&gt;fecha_inicio_puesto&lt;/span&gt;" style="text;html=1;strokeColor=none;fillColor=none;align=left;verticalAlign=middle;whiteSpace=wrap;rounded=0;strokeWidth=2;" parent="1" vertex="1">
                    <mxGeometry x="490" y="40" width="110" height="20" as="geometry"/>
                </mxCell>
                <mxCell id="518" value="&lt;span style=&quot;color: rgb(114 , 159 , 207)&quot;&gt;fecha_fin_puesto&lt;/span&gt;" style="text;html=1;strokeColor=none;fillColor=none;align=left;verticalAlign=middle;whiteSpace=wrap;rounded=0;strokeWidth=2;" parent="1" vertex="1">
                    <mxGeometry x="490" y="60" width="110" height="20" as="geometry"/>
                </mxCell>
                <mxCell id="520" value="&lt;font color=&quot;#729fcf&quot;&gt;TIME&lt;/font&gt;" style="text;html=1;strokeColor=none;fillColor=none;align=left;verticalAlign=middle;whiteSpace=wrap;rounded=0;strokeWidth=2;" parent="1" vertex="1">
                    <mxGeometry x="600" y="40" width="80" height="20" as="geometry"/>
                </mxCell>
                <mxCell id="521" value="&lt;font color=&quot;#729fcf&quot;&gt;TIME&lt;/font&gt;" style="text;html=1;strokeColor=none;fillColor=none;align=left;verticalAlign=middle;whiteSpace=wrap;rounded=0;strokeWidth=2;" parent="1" vertex="1">
                    <mxGeometry x="600" y="60" width="80" height="20" as="geometry"/>
                </mxCell>
                <mxCell id="524" value="&lt;font color=&quot;#ff6d6d&quot;&gt;id_lista_presidentes&lt;/font&gt;" style="text;html=1;strokeColor=none;fillColor=none;align=left;verticalAlign=middle;whiteSpace=wrap;rounded=0;strokeWidth=2;" parent="1" vertex="1">
                    <mxGeometry x="490" y="180" width="110" height="20" as="geometry"/>
                </mxCell>
                <mxCell id="525" value="&lt;font color=&quot;#ff6d6d&quot;&gt;INT&lt;/font&gt;" style="text;html=1;strokeColor=none;fillColor=none;align=left;verticalAlign=middle;whiteSpace=wrap;rounded=0;strokeWidth=2;" parent="1" vertex="1">
                    <mxGeometry x="600" y="180" width="80" height="20" as="geometry"/>
                </mxCell>
                <mxCell id="526" value="&lt;font color=&quot;#ff6d6d&quot;&gt;FK&lt;/font&gt;" style="text;html=1;strokeColor=none;fillColor=none;align=center;verticalAlign=middle;whiteSpace=wrap;rounded=0;fontStyle=1;strokeWidth=2;" parent="1" vertex="1">
                    <mxGeometry x="440" y="180" width="40" height="20" as="geometry"/>
                </mxCell>
                <mxCell id="527" value="&lt;font color=&quot;#ff6d6d&quot;&gt;FK&lt;/font&gt;" style="text;html=1;strokeColor=none;fillColor=none;align=center;verticalAlign=middle;whiteSpace=wrap;rounded=0;fontStyle=1;strokeWidth=2;" parent="1" vertex="1">
                    <mxGeometry x="-200" y="420" width="40" height="20" as="geometry"/>
                </mxCell>
                <mxCell id="528" value="&lt;span style=&quot;color: rgb(255 , 109 , 109)&quot;&gt;id_lista_presidentes&lt;/span&gt;" style="text;html=1;strokeColor=none;fillColor=none;align=left;verticalAlign=middle;whiteSpace=wrap;rounded=0;strokeWidth=2;" parent="1" vertex="1">
                    <mxGeometry x="-150" y="420" width="110" height="20" as="geometry"/>
                </mxCell>
                <mxCell id="529" value="&lt;font color=&quot;#ff6d6d&quot;&gt;INT&lt;/font&gt;" style="text;html=1;strokeColor=none;fillColor=none;align=left;verticalAlign=middle;whiteSpace=wrap;rounded=0;strokeWidth=2;" parent="1" vertex="1">
                    <mxGeometry x="-40" y="420" width="100" height="20" as="geometry"/>
                </mxCell>
                <mxCell id="534" value="" style="shape=internalStorage;whiteSpace=wrap;html=1;backgroundOutline=1;dx=40;dy=40;strokeWidth=2;strokeColor=#FFFFFF;fillColor=none;" parent="1" vertex="1">
                    <mxGeometry x="760" y="-20" width="240" height="180" as="geometry"/>
                </mxCell>
                <mxCell id="535" style="edgeStyle=none;html=1;exitX=0.75;exitY=1;exitDx=0;exitDy=0;fontColor=#FF6D6D;strokeWidth=2;" parent="1" source="536" target="544" edge="1">
                    <mxGeometry relative="1" as="geometry"/>
                </mxCell>
                <mxCell id="588" style="edgeStyle=orthogonalEdgeStyle;html=1;entryX=0;entryY=0.5;entryDx=0;entryDy=0;endArrow=none;endFill=0;strokeColor=#FFFFFF;strokeWidth=2;" parent="1" source="536" target="567" edge="1">
                    <mxGeometry relative="1" as="geometry">
                        <Array as="points">
                            <mxPoint x="740" y="-10"/>
                            <mxPoint x="740" y="250"/>
                        </Array>
                    </mxGeometry>
                </mxCell>
                <mxCell id="536" value="&lt;font color=&quot;#ffff6d&quot;&gt;PK&lt;/font&gt;" style="text;html=1;strokeColor=none;fillColor=none;align=center;verticalAlign=middle;whiteSpace=wrap;rounded=0;fontStyle=1;strokeWidth=2;" parent="1" vertex="1">
                    <mxGeometry x="760" y="-20" width="40" height="20" as="geometry"/>
                </mxCell>
                <mxCell id="537" value="&lt;font color=&quot;#ffff6d&quot;&gt;id&lt;/font&gt;" style="text;html=1;strokeColor=none;fillColor=none;align=left;verticalAlign=middle;whiteSpace=wrap;rounded=0;strokeWidth=2;" parent="1" vertex="1">
                    <mxGeometry x="810" y="-20" width="110" height="20" as="geometry"/>
                </mxCell>
                <mxCell id="538" value="&lt;font color=&quot;#ff6d6d&quot;&gt;INT&lt;/font&gt;" style="text;html=1;strokeColor=none;fillColor=none;align=left;verticalAlign=middle;whiteSpace=wrap;rounded=0;strokeWidth=2;" parent="1" vertex="1">
                    <mxGeometry x="920" width="80" height="20" as="geometry"/>
                </mxCell>
                <mxCell id="539" value="&lt;font color=&quot;#729fcf&quot;&gt;nombre&lt;/font&gt;" style="text;html=1;strokeColor=none;fillColor=none;align=left;verticalAlign=middle;whiteSpace=wrap;rounded=0;strokeWidth=2;" parent="1" vertex="1">
                    <mxGeometry x="810" y="20" width="110" height="20" as="geometry"/>
                </mxCell>
                <mxCell id="540" value="&lt;font color=&quot;#729fcf&quot;&gt;VARCHAR&lt;/font&gt;" style="text;html=1;strokeColor=none;fillColor=none;align=left;verticalAlign=middle;whiteSpace=wrap;rounded=0;strokeWidth=2;" parent="1" vertex="1">
                    <mxGeometry x="920" y="20" width="80" height="20" as="geometry"/>
                </mxCell>
                <mxCell id="541" value="&lt;font color=&quot;#77bc65&quot;&gt;personal_apoyo&lt;/font&gt;" style="rounded=0;whiteSpace=wrap;html=1;strokeWidth=2;strokeColor=#FFFFFF;fillColor=none;" parent="1" vertex="1">
                    <mxGeometry x="760" y="-40" width="240" height="20" as="geometry"/>
                </mxCell>
                <mxCell id="542" value="&lt;font color=&quot;#ffff6d&quot;&gt;INT (NN AI)&lt;/font&gt;" style="text;html=1;strokeColor=none;fillColor=none;align=left;verticalAlign=middle;whiteSpace=wrap;rounded=0;strokeWidth=2;" parent="1" vertex="1">
                    <mxGeometry x="920" y="-20" width="80" height="20" as="geometry"/>
                </mxCell>
                <mxCell id="543" value="&lt;font color=&quot;#ff6d6d&quot;&gt;id_lista_apoyo&lt;/font&gt;" style="text;html=1;strokeColor=none;fillColor=none;align=left;verticalAlign=middle;whiteSpace=wrap;rounded=0;strokeWidth=2;" parent="1" vertex="1">
                    <mxGeometry x="810" width="110" height="20" as="geometry"/>
                </mxCell>
                <mxCell id="589" style="edgeStyle=orthogonalEdgeStyle;html=1;entryX=0;entryY=0.5;entryDx=0;entryDy=0;endArrow=none;endFill=0;strokeColor=#FFFFFF;strokeWidth=2;" parent="1" source="544" target="561" edge="1">
                    <mxGeometry relative="1" as="geometry">
                        <Array as="points">
                            <mxPoint x="720" y="10"/>
                            <mxPoint x="720" y="230"/>
                        </Array>
                    </mxGeometry>
                </mxCell>
                <mxCell id="544" value="&lt;font color=&quot;#ff6d6d&quot;&gt;FK&lt;/font&gt;" style="text;html=1;strokeColor=none;fillColor=none;align=center;verticalAlign=middle;whiteSpace=wrap;rounded=0;fontStyle=1;strokeWidth=2;" parent="1" vertex="1">
                    <mxGeometry x="760" width="40" height="20" as="geometry"/>
                </mxCell>
                <mxCell id="545" value="&lt;font color=&quot;#729fcf&quot;&gt;apellidos&lt;/font&gt;" style="text;html=1;strokeColor=none;fillColor=none;align=left;verticalAlign=middle;whiteSpace=wrap;rounded=0;strokeWidth=2;" parent="1" vertex="1">
                    <mxGeometry x="810" y="40" width="110" height="20" as="geometry"/>
                </mxCell>
                <mxCell id="546" value="&lt;font color=&quot;#729fcf&quot;&gt;nif&lt;/font&gt;" style="text;html=1;strokeColor=none;fillColor=none;align=left;verticalAlign=middle;whiteSpace=wrap;rounded=0;strokeWidth=2;" parent="1" vertex="1">
                    <mxGeometry x="810" y="60" width="110" height="20" as="geometry"/>
                </mxCell>
                <mxCell id="547" value="&lt;font color=&quot;#729fcf&quot;&gt;fecha_nacimiento&lt;/font&gt;" style="text;html=1;strokeColor=none;fillColor=none;align=left;verticalAlign=middle;whiteSpace=wrap;rounded=0;strokeWidth=2;" parent="1" vertex="1">
                    <mxGeometry x="810" y="80" width="110" height="20" as="geometry"/>
                </mxCell>
                <mxCell id="548" value="&lt;font color=&quot;#729fcf&quot;&gt;telefono&lt;/font&gt;" style="text;html=1;strokeColor=none;fillColor=none;align=left;verticalAlign=middle;whiteSpace=wrap;rounded=0;strokeWidth=2;" parent="1" vertex="1">
                    <mxGeometry x="810" y="100" width="110" height="20" as="geometry"/>
                </mxCell>
                <mxCell id="549" value="&lt;font color=&quot;#729fcf&quot;&gt;correo_electronico&lt;/font&gt;" style="text;html=1;strokeColor=none;fillColor=none;align=left;verticalAlign=middle;whiteSpace=wrap;rounded=0;strokeWidth=2;" parent="1" vertex="1">
                    <mxGeometry x="810" y="120" width="110" height="20" as="geometry"/>
                </mxCell>
                <mxCell id="551" value="&lt;font color=&quot;#729fcf&quot;&gt;fecha_registro&lt;/font&gt;" style="text;html=1;strokeColor=none;fillColor=none;align=left;verticalAlign=middle;whiteSpace=wrap;rounded=0;strokeWidth=2;" parent="1" vertex="1">
                    <mxGeometry x="810" y="140" width="110" height="20" as="geometry"/>
                </mxCell>
                <mxCell id="552" value="&lt;font color=&quot;#729fcf&quot;&gt;VARCHAR&lt;/font&gt;" style="text;html=1;strokeColor=none;fillColor=none;align=left;verticalAlign=middle;whiteSpace=wrap;rounded=0;strokeWidth=2;" parent="1" vertex="1">
                    <mxGeometry x="920" y="40" width="80" height="20" as="geometry"/>
                </mxCell>
                <mxCell id="553" value="&lt;font color=&quot;#729fcf&quot;&gt;CHAR&lt;/font&gt;" style="text;html=1;strokeColor=none;fillColor=none;align=left;verticalAlign=middle;whiteSpace=wrap;rounded=0;strokeWidth=2;" parent="1" vertex="1">
                    <mxGeometry x="920" y="60" width="80" height="20" as="geometry"/>
                </mxCell>
                <mxCell id="554" value="&lt;font color=&quot;#729fcf&quot;&gt;TIME&lt;/font&gt;" style="text;html=1;strokeColor=none;fillColor=none;align=left;verticalAlign=middle;whiteSpace=wrap;rounded=0;strokeWidth=2;" parent="1" vertex="1">
                    <mxGeometry x="920" y="80" width="80" height="20" as="geometry"/>
                </mxCell>
                <mxCell id="555" value="&lt;font color=&quot;#729fcf&quot;&gt;BIGINT&lt;/font&gt;" style="text;html=1;strokeColor=none;fillColor=none;align=left;verticalAlign=middle;whiteSpace=wrap;rounded=0;strokeWidth=2;" parent="1" vertex="1">
                    <mxGeometry x="920" y="100" width="80" height="20" as="geometry"/>
                </mxCell>
                <mxCell id="556" value="&lt;font color=&quot;#729fcf&quot;&gt;VARCHAR&lt;/font&gt;" style="text;html=1;strokeColor=none;fillColor=none;align=left;verticalAlign=middle;whiteSpace=wrap;rounded=0;strokeWidth=2;" parent="1" vertex="1">
                    <mxGeometry x="920" y="120" width="80" height="20" as="geometry"/>
                </mxCell>
                <mxCell id="557" value="&lt;font color=&quot;#729fcf&quot;&gt;TIMESTAMP&lt;/font&gt;" style="text;html=1;strokeColor=none;fillColor=none;align=left;verticalAlign=middle;whiteSpace=wrap;rounded=0;strokeWidth=2;" parent="1" vertex="1">
                    <mxGeometry x="920" y="140" width="80" height="20" as="geometry"/>
                </mxCell>
                <mxCell id="559" value="" style="shape=internalStorage;whiteSpace=wrap;html=1;backgroundOutline=1;dx=40;dy=40;strokeWidth=2;strokeColor=#FFFFFF;fillColor=none;" parent="1" vertex="1">
                    <mxGeometry x="760" y="220" width="240" height="140" as="geometry"/>
                </mxCell>
                <mxCell id="560" style="edgeStyle=none;html=1;exitX=0.75;exitY=1;exitDx=0;exitDy=0;fontColor=#FF6D6D;strokeWidth=2;" parent="1" source="561" target="567" edge="1">
                    <mxGeometry relative="1" as="geometry"/>
                </mxCell>
                <mxCell id="917" style="edgeStyle=orthogonalEdgeStyle;html=1;entryX=1;entryY=0.5;entryDx=0;entryDy=0;endArrow=none;endFill=0;strokeColor=#FFFFFF;strokeWidth=2;" parent="1" source="561" target="586" edge="1">
                    <mxGeometry relative="1" as="geometry">
                        <Array as="points">
                            <mxPoint x="720" y="230"/>
                            <mxPoint x="720" y="470"/>
                        </Array>
                    </mxGeometry>
                </mxCell>
                <mxCell id="561" value="&lt;font color=&quot;#ffff6d&quot;&gt;PK&lt;/font&gt;" style="text;html=1;strokeColor=none;fillColor=none;align=center;verticalAlign=middle;whiteSpace=wrap;rounded=0;fontStyle=1;strokeWidth=2;" parent="1" vertex="1">
                    <mxGeometry x="760" y="220" width="40" height="20" as="geometry"/>
                </mxCell>
                <mxCell id="562" value="&lt;font color=&quot;#ffff6d&quot;&gt;id&lt;/font&gt;" style="text;html=1;strokeColor=none;fillColor=none;align=left;verticalAlign=middle;whiteSpace=wrap;rounded=0;strokeWidth=2;" parent="1" vertex="1">
                    <mxGeometry x="810" y="220" width="110" height="20" as="geometry"/>
                </mxCell>
                <mxCell id="563" value="&lt;font color=&quot;#ff6d6d&quot;&gt;INT&lt;/font&gt;" style="text;html=1;strokeColor=none;fillColor=none;align=left;verticalAlign=middle;whiteSpace=wrap;rounded=0;strokeWidth=2;" parent="1" vertex="1">
                    <mxGeometry x="920" y="240" width="80" height="20" as="geometry"/>
                </mxCell>
                <mxCell id="564" value="&lt;font color=&quot;#77bc65&quot;&gt;listas_personal_apoyo&lt;/font&gt;" style="rounded=0;whiteSpace=wrap;html=1;strokeWidth=2;strokeColor=#FFFFFF;fillColor=none;" parent="1" vertex="1">
                    <mxGeometry x="760" y="200" width="240" height="20" as="geometry"/>
                </mxCell>
                <mxCell id="565" value="&lt;font color=&quot;#ffff6d&quot;&gt;INT&lt;/font&gt;&lt;span style=&quot;color: rgb(255 , 255 , 109)&quot;&gt;&amp;nbsp;(NN AI)&lt;/span&gt;" style="text;html=1;strokeColor=none;fillColor=none;align=left;verticalAlign=middle;whiteSpace=wrap;rounded=0;strokeWidth=2;" parent="1" vertex="1">
                    <mxGeometry x="920" y="220" width="80" height="20" as="geometry"/>
                </mxCell>
                <mxCell id="566" value="&lt;font color=&quot;#ff6d6d&quot;&gt;id_personal_ap&lt;/font&gt;" style="text;html=1;strokeColor=none;fillColor=none;align=left;verticalAlign=middle;whiteSpace=wrap;rounded=0;strokeWidth=2;" parent="1" vertex="1">
                    <mxGeometry x="810" y="240" width="110" height="20" as="geometry"/>
                </mxCell>
                <mxCell id="567" value="&lt;font color=&quot;#ff6d6d&quot;&gt;FK&lt;/font&gt;" style="text;html=1;strokeColor=none;fillColor=none;align=center;verticalAlign=middle;whiteSpace=wrap;rounded=0;fontStyle=1;strokeWidth=2;" parent="1" vertex="1">
                    <mxGeometry x="760" y="240" width="40" height="20" as="geometry"/>
                </mxCell>
                <mxCell id="573" value="&lt;span style=&quot;color: rgb(114 , 159 , 207)&quot;&gt;id_&lt;/span&gt;&lt;font color=&quot;#729fcf&quot;&gt;agencia0&lt;/font&gt;" style="text;html=1;strokeColor=none;fillColor=none;align=left;verticalAlign=middle;whiteSpace=wrap;rounded=0;strokeWidth=2;" parent="1" vertex="1">
                    <mxGeometry x="810" y="260" width="110" height="20" as="geometry"/>
                </mxCell>
                <mxCell id="574" value="&lt;font color=&quot;#729fcf&quot;&gt;TINYINT&lt;/font&gt;" style="text;html=1;strokeColor=none;fillColor=none;align=left;verticalAlign=middle;whiteSpace=wrap;rounded=0;strokeWidth=2;" parent="1" vertex="1">
                    <mxGeometry x="920" y="260" width="80" height="20" as="geometry"/>
                </mxCell>
                <mxCell id="575" value="&lt;font color=&quot;#729fcf&quot;&gt;id_agencia1&lt;/font&gt;" style="text;html=1;strokeColor=none;fillColor=none;align=left;verticalAlign=middle;whiteSpace=wrap;rounded=0;strokeWidth=2;" parent="1" vertex="1">
                    <mxGeometry x="810" y="280" width="110" height="20" as="geometry"/>
                </mxCell>
                <mxCell id="576" value="&lt;span style=&quot;color: rgb(114 , 159 , 207)&quot;&gt;TINYINT&lt;/span&gt;" style="text;html=1;strokeColor=none;fillColor=none;align=left;verticalAlign=middle;whiteSpace=wrap;rounded=0;strokeWidth=2;" parent="1" vertex="1">
                    <mxGeometry x="920" y="280" width="80" height="20" as="geometry"/>
                </mxCell>
                <mxCell id="577" value="&lt;span style=&quot;color: rgb(114 , 159 , 207)&quot;&gt;TINYINT&lt;/span&gt;" style="text;html=1;strokeColor=none;fillColor=none;align=left;verticalAlign=middle;whiteSpace=wrap;rounded=0;strokeWidth=2;" parent="1" vertex="1">
                    <mxGeometry x="920" y="300" width="80" height="20" as="geometry"/>
                </mxCell>
                <mxCell id="578" value="&lt;span style=&quot;color: rgb(114 , 159 , 207)&quot;&gt;TINYINT&lt;/span&gt;" style="text;html=1;strokeColor=none;fillColor=none;align=left;verticalAlign=middle;whiteSpace=wrap;rounded=0;strokeWidth=2;" parent="1" vertex="1">
                    <mxGeometry x="920" y="320" width="80" height="20" as="geometry"/>
                </mxCell>
                <mxCell id="579" value="&lt;span style=&quot;color: rgb(114 , 159 , 207)&quot;&gt;TINYINT&lt;/span&gt;" style="text;html=1;strokeColor=none;fillColor=none;align=left;verticalAlign=middle;whiteSpace=wrap;rounded=0;strokeWidth=2;" parent="1" vertex="1">
                    <mxGeometry x="920" y="340" width="80" height="20" as="geometry"/>
                </mxCell>
                <mxCell id="580" value="&lt;span style=&quot;color: rgb(114 , 159 , 207)&quot;&gt;id_&lt;/span&gt;&lt;font color=&quot;#729fcf&quot;&gt;agencia2&lt;/font&gt;" style="text;html=1;strokeColor=none;fillColor=none;align=left;verticalAlign=middle;whiteSpace=wrap;rounded=0;strokeWidth=2;" parent="1" vertex="1">
                    <mxGeometry x="810" y="300" width="110" height="20" as="geometry"/>
                </mxCell>
                <mxCell id="581" value="&lt;span style=&quot;color: rgb(114 , 159 , 207)&quot;&gt;id_&lt;/span&gt;&lt;font color=&quot;#729fcf&quot;&gt;agencia3&lt;/font&gt;" style="text;html=1;strokeColor=none;fillColor=none;align=left;verticalAlign=middle;whiteSpace=wrap;rounded=0;strokeWidth=2;" parent="1" vertex="1">
                    <mxGeometry x="810" y="320" width="110" height="20" as="geometry"/>
                </mxCell>
                <mxCell id="582" value="&lt;span style=&quot;color: rgb(114 , 159 , 207)&quot;&gt;id_&lt;/span&gt;&lt;font color=&quot;#729fcf&quot;&gt;agencia4&lt;/font&gt;" style="text;html=1;strokeColor=none;fillColor=none;align=left;verticalAlign=middle;whiteSpace=wrap;rounded=0;strokeWidth=2;" parent="1" vertex="1">
                    <mxGeometry x="810" y="340" width="110" height="20" as="geometry"/>
                </mxCell>
                <mxCell id="584" value="&lt;font color=&quot;#ff6d6d&quot;&gt;FK&lt;/font&gt;" style="text;html=1;strokeColor=none;fillColor=none;align=center;verticalAlign=middle;whiteSpace=wrap;rounded=0;fontStyle=1;strokeWidth=2;" parent="1" vertex="1">
                    <mxGeometry x="-200" y="460" width="40" height="20" as="geometry"/>
                </mxCell>
                <mxCell id="585" value="&lt;font color=&quot;#ff6d6d&quot;&gt;id_lista_personl_ap&lt;/font&gt;" style="text;html=1;strokeColor=none;fillColor=none;align=left;verticalAlign=middle;whiteSpace=wrap;rounded=0;strokeWidth=2;" parent="1" vertex="1">
                    <mxGeometry x="-150" y="460" width="110" height="20" as="geometry"/>
                </mxCell>
                <mxCell id="586" value="&lt;font color=&quot;#ff6d6d&quot;&gt;INT&lt;/font&gt;" style="text;html=1;strokeColor=none;fillColor=none;align=left;verticalAlign=middle;whiteSpace=wrap;rounded=0;strokeWidth=2;" parent="1" vertex="1">
                    <mxGeometry x="-40" y="460" width="100" height="20" as="geometry"/>
                </mxCell>
                <mxCell id="810" value="" style="shape=internalStorage;whiteSpace=wrap;html=1;backgroundOutline=1;dx=40;dy=120;strokeWidth=2;strokeColor=#FFFFFF;fillColor=none;" parent="1" vertex="1">
                    <mxGeometry x="440" y="520" width="280" height="200" as="geometry"/>
                </mxCell>
                <mxCell id="811" style="edgeStyle=none;html=1;exitX=0.75;exitY=1;exitDx=0;exitDy=0;fontColor=#FF6D6D;strokeWidth=2;" parent="1" source="812" target="818" edge="1">
                    <mxGeometry relative="1" as="geometry"/>
                </mxCell>
                <mxCell id="909" style="edgeStyle=orthogonalEdgeStyle;html=1;entryX=1;entryY=0.5;entryDx=0;entryDy=0;endArrow=none;endFill=0;strokeColor=#FFFFFF;strokeWidth=2;" parent="1" source="812" target="878" edge="1">
                    <mxGeometry relative="1" as="geometry">
                        <Array as="points">
                            <mxPoint x="380" y="530"/>
                            <mxPoint x="380" y="530"/>
                        </Array>
                    </mxGeometry>
                </mxCell>
                <mxCell id="812" value="&lt;font color=&quot;#ffff6d&quot;&gt;PK&lt;/font&gt;" style="text;html=1;strokeColor=none;fillColor=none;align=center;verticalAlign=middle;whiteSpace=wrap;rounded=0;fontStyle=1;strokeWidth=2;" parent="1" vertex="1">
                    <mxGeometry x="440" y="520" width="40" height="20" as="geometry"/>
                </mxCell>
                <mxCell id="813" value="&lt;font color=&quot;#ffff6d&quot;&gt;id&lt;/font&gt;" style="text;html=1;strokeColor=none;fillColor=none;align=left;verticalAlign=middle;whiteSpace=wrap;rounded=0;strokeWidth=2;" parent="1" vertex="1">
                    <mxGeometry x="490" y="520" width="110" height="20" as="geometry"/>
                </mxCell>
                <mxCell id="814" value="&lt;font color=&quot;#ff6d6d&quot;&gt;INT&lt;/font&gt;" style="text;html=1;strokeColor=none;fillColor=none;align=left;verticalAlign=middle;whiteSpace=wrap;rounded=0;strokeWidth=2;" parent="1" vertex="1">
                    <mxGeometry x="600" y="560" width="80" height="20" as="geometry"/>
                </mxCell>
                <mxCell id="815" value="&lt;font color=&quot;#77bc65&quot;&gt;eventos&lt;/font&gt;" style="rounded=0;whiteSpace=wrap;html=1;strokeWidth=2;strokeColor=#FFFFFF;fillColor=none;" parent="1" vertex="1">
                    <mxGeometry x="440" y="500" width="280" height="20" as="geometry"/>
                </mxCell>
                <mxCell id="816" value="&lt;span style=&quot;color: rgb(255 , 255 , 109)&quot;&gt;SMALLINT (NN AI)&lt;/span&gt;" style="text;html=1;strokeColor=none;fillColor=none;align=left;verticalAlign=middle;whiteSpace=wrap;rounded=0;strokeWidth=2;" parent="1" vertex="1">
                    <mxGeometry x="600" y="520" width="110" height="20" as="geometry"/>
                </mxCell>
                <mxCell id="817" value="&lt;font color=&quot;#ff6d6d&quot;&gt;id_presidente&lt;/font&gt;" style="text;html=1;strokeColor=none;fillColor=none;align=left;verticalAlign=middle;whiteSpace=wrap;rounded=0;strokeWidth=2;" parent="1" vertex="1">
                    <mxGeometry x="490" y="560" width="110" height="20" as="geometry"/>
                </mxCell>
                <mxCell id="818" value="&lt;font color=&quot;#ff6d6d&quot;&gt;FK&lt;/font&gt;" style="text;html=1;strokeColor=none;fillColor=none;align=center;verticalAlign=middle;whiteSpace=wrap;rounded=0;fontStyle=1;strokeWidth=2;" parent="1" vertex="1">
                    <mxGeometry x="440" y="540" width="40" height="20" as="geometry"/>
                </mxCell>
                <mxCell id="819" value="&lt;font color=&quot;#ff6d6d&quot;&gt;FK&lt;/font&gt;" style="text;html=1;strokeColor=none;fillColor=none;align=center;verticalAlign=middle;whiteSpace=wrap;rounded=0;fontStyle=1;strokeWidth=2;" parent="1" vertex="1">
                    <mxGeometry x="440" y="560" width="40" height="20" as="geometry"/>
                </mxCell>
                <mxCell id="820" value="&lt;font color=&quot;#ff6d6d&quot;&gt;id_ong&lt;/font&gt;" style="text;html=1;strokeColor=none;fillColor=none;align=left;verticalAlign=middle;whiteSpace=wrap;rounded=0;strokeWidth=2;" parent="1" vertex="1">
                    <mxGeometry x="490" y="540" width="110" height="20" as="geometry"/>
                </mxCell>
                <mxCell id="821" value="&lt;span style=&quot;color: rgb(255 , 109 , 109)&quot;&gt;TINYINT&lt;/span&gt;" style="text;html=1;strokeColor=none;fillColor=none;align=left;verticalAlign=middle;whiteSpace=wrap;rounded=0;strokeWidth=2;" parent="1" vertex="1">
                    <mxGeometry x="600" y="540" width="80" height="20" as="geometry"/>
                </mxCell>
                <mxCell id="822" value="&lt;span style=&quot;color: rgb(114 , 159 , 207)&quot;&gt;nombre_evento&lt;/span&gt;" style="text;html=1;strokeColor=none;fillColor=none;align=left;verticalAlign=middle;whiteSpace=wrap;rounded=0;strokeWidth=2;" parent="1" vertex="1">
                    <mxGeometry x="490" y="640" width="110" height="20" as="geometry"/>
                </mxCell>
                <mxCell id="823" value="&lt;span style=&quot;color: rgb(114 , 159 , 207)&quot;&gt;fecha_evento&lt;/span&gt;" style="text;html=1;strokeColor=none;fillColor=none;align=left;verticalAlign=middle;whiteSpace=wrap;rounded=0;strokeWidth=2;" parent="1" vertex="1">
                    <mxGeometry x="490" y="660" width="110" height="20" as="geometry"/>
                </mxCell>
                <mxCell id="824" value="&lt;font color=&quot;#729fcf&quot;&gt;DATETIME&lt;/font&gt;" style="text;html=1;strokeColor=none;fillColor=none;align=left;verticalAlign=middle;whiteSpace=wrap;rounded=0;strokeWidth=2;" parent="1" vertex="1">
                    <mxGeometry x="600" y="660" width="80" height="20" as="geometry"/>
                </mxCell>
                <mxCell id="825" value="&lt;font color=&quot;#729fcf&quot;&gt;direccion&lt;/font&gt;" style="text;html=1;strokeColor=none;fillColor=none;align=left;verticalAlign=middle;whiteSpace=wrap;rounded=0;strokeWidth=2;" parent="1" vertex="1">
                    <mxGeometry x="490" y="680" width="80" height="20" as="geometry"/>
                </mxCell>
                <mxCell id="827" value="&lt;font color=&quot;#ff6d6d&quot;&gt;id_socio_coord&lt;/font&gt;" style="text;html=1;strokeColor=none;fillColor=none;align=left;verticalAlign=middle;whiteSpace=wrap;rounded=0;strokeWidth=2;" parent="1" vertex="1">
                    <mxGeometry x="490" y="580" width="110" height="20" as="geometry"/>
                </mxCell>
                <mxCell id="828" value="&lt;font color=&quot;#ff6d6d&quot;&gt;id_lista_partici&lt;/font&gt;" style="text;html=1;strokeColor=none;fillColor=none;align=left;verticalAlign=middle;whiteSpace=wrap;rounded=0;strokeWidth=2;" parent="1" vertex="1">
                    <mxGeometry x="490" y="600" width="110" height="20" as="geometry"/>
                </mxCell>
                <mxCell id="829" value="&lt;font color=&quot;#ff6d6d&quot;&gt;id_lista_seguros&lt;/font&gt;" style="text;html=1;strokeColor=none;fillColor=none;align=left;verticalAlign=middle;whiteSpace=wrap;rounded=0;strokeWidth=2;" parent="1" vertex="1">
                    <mxGeometry x="490" y="620" width="110" height="20" as="geometry"/>
                </mxCell>
                <mxCell id="830" value="&lt;span style=&quot;color: rgb(255 , 109 , 109)&quot;&gt;INT&lt;/span&gt;" style="text;html=1;strokeColor=none;fillColor=none;align=left;verticalAlign=middle;whiteSpace=wrap;rounded=0;strokeWidth=2;" parent="1" vertex="1">
                    <mxGeometry x="600" y="620" width="120" height="20" as="geometry"/>
                </mxCell>
                <mxCell id="831" value="&lt;span style=&quot;color: rgb(255 , 109 , 109)&quot;&gt;INT&lt;/span&gt;" style="text;html=1;strokeColor=none;fillColor=none;align=left;verticalAlign=middle;whiteSpace=wrap;rounded=0;strokeWidth=2;" parent="1" vertex="1">
                    <mxGeometry x="600" y="580" width="80" height="20" as="geometry"/>
                </mxCell>
                <mxCell id="832" value="&lt;span style=&quot;color: rgb(255 , 109 , 109)&quot;&gt;INT&lt;/span&gt;" style="text;html=1;strokeColor=none;fillColor=none;align=left;verticalAlign=middle;whiteSpace=wrap;rounded=0;strokeWidth=2;" parent="1" vertex="1">
                    <mxGeometry x="600" y="600" width="80" height="20" as="geometry"/>
                </mxCell>
                <mxCell id="834" value="&lt;font color=&quot;#729fcf&quot;&gt;VARCHAR&lt;/font&gt;" style="text;html=1;strokeColor=none;fillColor=none;align=left;verticalAlign=middle;whiteSpace=wrap;rounded=0;strokeWidth=2;" parent="1" vertex="1">
                    <mxGeometry x="600" y="640" width="80" height="20" as="geometry"/>
                </mxCell>
                <mxCell id="835" value="&lt;font color=&quot;#729fcf&quot;&gt;VARCHAR&lt;/font&gt;" style="text;html=1;strokeColor=none;fillColor=none;align=left;verticalAlign=middle;whiteSpace=wrap;rounded=0;strokeWidth=2;" parent="1" vertex="1">
                    <mxGeometry x="600" y="680" width="80" height="20" as="geometry"/>
                </mxCell>
                <mxCell id="838" value="" style="shape=internalStorage;whiteSpace=wrap;html=1;backgroundOutline=1;dx=40;dy=60;strokeWidth=2;strokeColor=#FFFFFF;fillColor=none;" parent="1" vertex="1">
                    <mxGeometry x="-200" y="660" width="240" height="60" as="geometry"/>
                </mxCell>
                <mxCell id="839" style="edgeStyle=none;html=1;exitX=0.75;exitY=1;exitDx=0;exitDy=0;fontColor=#FF6D6D;strokeWidth=2;" parent="1" source="840" target="846" edge="1">
                    <mxGeometry relative="1" as="geometry"/>
                </mxCell>
                <mxCell id="840" value="&lt;font color=&quot;#ffff6d&quot;&gt;PK&lt;/font&gt;" style="text;html=1;strokeColor=none;fillColor=none;align=center;verticalAlign=middle;whiteSpace=wrap;rounded=0;fontStyle=1;strokeWidth=2;" parent="1" vertex="1">
                    <mxGeometry x="-200" y="660" width="40" height="20" as="geometry"/>
                </mxCell>
                <mxCell id="841" value="&lt;font color=&quot;#ffff6d&quot;&gt;id&lt;/font&gt;" style="text;html=1;strokeColor=none;fillColor=none;align=left;verticalAlign=middle;whiteSpace=wrap;rounded=0;strokeWidth=2;" parent="1" vertex="1">
                    <mxGeometry x="-150" y="660" width="110" height="20" as="geometry"/>
                </mxCell>
                <mxCell id="842" value="&lt;font color=&quot;#ff6d6d&quot;&gt;INT&lt;/font&gt;" style="text;html=1;strokeColor=none;fillColor=none;align=left;verticalAlign=middle;whiteSpace=wrap;rounded=0;strokeWidth=2;" parent="1" vertex="1">
                    <mxGeometry x="-40" y="680" width="80" height="20" as="geometry"/>
                </mxCell>
                <mxCell id="843" value="&lt;font color=&quot;#77bc65&quot;&gt;listas_socios_participantes&lt;/font&gt;" style="rounded=0;whiteSpace=wrap;html=1;strokeWidth=2;strokeColor=#FFFFFF;fillColor=none;" parent="1" vertex="1">
                    <mxGeometry x="-200" y="640" width="240" height="20" as="geometry"/>
                </mxCell>
                <mxCell id="892" style="edgeStyle=orthogonalEdgeStyle;html=1;entryX=0;entryY=0.5;entryDx=0;entryDy=0;endArrow=none;endFill=0;strokeColor=#FFFFFF;strokeWidth=2;" parent="1" source="844" target="907" edge="1">
                    <mxGeometry relative="1" as="geometry"/>
                </mxCell>
                <mxCell id="844" value="&lt;font color=&quot;#ffff6d&quot;&gt;INT&lt;/font&gt;&lt;span style=&quot;color: rgb(255 , 255 , 109)&quot;&gt;&amp;nbsp;(NN AI)&lt;/span&gt;" style="text;html=1;strokeColor=none;fillColor=none;align=left;verticalAlign=middle;whiteSpace=wrap;rounded=0;strokeWidth=2;" parent="1" vertex="1">
                    <mxGeometry x="-40" y="660" width="80" height="20" as="geometry"/>
                </mxCell>
                <mxCell id="845" value="&lt;font color=&quot;#ff6d6d&quot;&gt;id_socio&lt;/font&gt;" style="text;html=1;strokeColor=none;fillColor=none;align=left;verticalAlign=middle;whiteSpace=wrap;rounded=0;strokeWidth=2;" parent="1" vertex="1">
                    <mxGeometry x="-150" y="680" width="110" height="20" as="geometry"/>
                </mxCell>
                <mxCell id="846" value="&lt;font color=&quot;#ff6d6d&quot;&gt;FK&lt;/font&gt;" style="text;html=1;strokeColor=none;fillColor=none;align=center;verticalAlign=middle;whiteSpace=wrap;rounded=0;fontStyle=1;strokeWidth=2;" parent="1" vertex="1">
                    <mxGeometry x="-200" y="680" width="40" height="20" as="geometry"/>
                </mxCell>
                <mxCell id="847" value="&lt;font color=&quot;#ff6d6d&quot;&gt;FK&lt;/font&gt;" style="text;html=1;strokeColor=none;fillColor=none;align=center;verticalAlign=middle;whiteSpace=wrap;rounded=0;fontStyle=1;strokeWidth=2;" parent="1" vertex="1">
                    <mxGeometry x="-200" y="700" width="40" height="20" as="geometry"/>
                </mxCell>
                <mxCell id="848" value="&lt;font color=&quot;#ff6d6d&quot;&gt;id_ong_represent&lt;/font&gt;" style="text;html=1;strokeColor=none;fillColor=none;align=left;verticalAlign=middle;whiteSpace=wrap;rounded=0;strokeWidth=2;" parent="1" vertex="1">
                    <mxGeometry x="-150" y="700" width="110" height="20" as="geometry"/>
                </mxCell>
                <mxCell id="849" value="&lt;font color=&quot;#ff6d6d&quot;&gt;TINYINT&lt;/font&gt;" style="text;html=1;strokeColor=none;fillColor=none;align=left;verticalAlign=middle;whiteSpace=wrap;rounded=0;strokeWidth=2;" parent="1" vertex="1">
                    <mxGeometry x="-40" y="700" width="80" height="20" as="geometry"/>
                </mxCell>
                <mxCell id="855" value="" style="shape=internalStorage;whiteSpace=wrap;html=1;backgroundOutline=1;dx=40;dy=40;strokeWidth=2;strokeColor=#FFFFFF;fillColor=none;" parent="1" vertex="1">
                    <mxGeometry x="760" y="660" width="240" height="60" as="geometry"/>
                </mxCell>
                <mxCell id="856" style="edgeStyle=none;html=1;exitX=0.75;exitY=1;exitDx=0;exitDy=0;fontColor=#FF6D6D;strokeWidth=2;" parent="1" source="857" edge="1">
                    <mxGeometry relative="1" as="geometry">
                        <mxPoint x="790" y="680" as="targetPoint"/>
                    </mxGeometry>
                </mxCell>
                <mxCell id="891" style="edgeStyle=orthogonalEdgeStyle;html=1;endArrow=none;endFill=0;strokeColor=#FFFFFF;strokeWidth=2;entryX=1;entryY=0.5;entryDx=0;entryDy=0;" parent="1" source="857" target="830" edge="1">
                    <mxGeometry relative="1" as="geometry">
                        <Array as="points">
                            <mxPoint x="740" y="670"/>
                            <mxPoint x="740" y="630"/>
                        </Array>
                    </mxGeometry>
                </mxCell>
                <mxCell id="857" value="&lt;font color=&quot;#ffff6d&quot;&gt;PK&lt;/font&gt;" style="text;html=1;strokeColor=none;fillColor=none;align=center;verticalAlign=middle;whiteSpace=wrap;rounded=0;fontStyle=1;strokeWidth=2;" parent="1" vertex="1">
                    <mxGeometry x="760" y="660" width="40" height="20" as="geometry"/>
                </mxCell>
                <mxCell id="858" value="&lt;font color=&quot;#ffff6d&quot;&gt;id&lt;/font&gt;" style="text;html=1;strokeColor=none;fillColor=none;align=left;verticalAlign=middle;whiteSpace=wrap;rounded=0;strokeWidth=2;" parent="1" vertex="1">
                    <mxGeometry x="810" y="660" width="110" height="20" as="geometry"/>
                </mxCell>
                <mxCell id="860" value="&lt;font color=&quot;#77bc65&quot;&gt;listas_agencias_seguros&lt;/font&gt;" style="rounded=0;whiteSpace=wrap;html=1;strokeWidth=2;strokeColor=#FFFFFF;fillColor=none;" parent="1" vertex="1">
                    <mxGeometry x="760" y="640" width="240" height="20" as="geometry"/>
                </mxCell>
                <mxCell id="965" style="edgeStyle=orthogonalEdgeStyle;html=1;entryX=1;entryY=0.5;entryDx=0;entryDy=0;endArrow=none;endFill=0;strokeColor=#FFFFFF;strokeWidth=2;" parent="1" source="861" target="961" edge="1">
                    <mxGeometry relative="1" as="geometry">
                        <Array as="points">
                            <mxPoint x="1020" y="670"/>
                            <mxPoint x="1020" y="530"/>
                        </Array>
                    </mxGeometry>
                </mxCell>
                <mxCell id="861" value="&lt;font color=&quot;#ffff6d&quot;&gt;INT&lt;/font&gt;&lt;span style=&quot;color: rgb(255 , 255 , 109)&quot;&gt;&amp;nbsp;(NN AI)&lt;/span&gt;" style="text;html=1;strokeColor=none;fillColor=none;align=left;verticalAlign=middle;whiteSpace=wrap;rounded=0;strokeWidth=2;" parent="1" vertex="1">
                    <mxGeometry x="920" y="660" width="80" height="20" as="geometry"/>
                </mxCell>
                <mxCell id="874" value="" style="shape=internalStorage;whiteSpace=wrap;html=1;backgroundOutline=1;dx=40;dy=40;strokeWidth=2;strokeColor=#FFFFFF;fillColor=none;" parent="1" vertex="1">
                    <mxGeometry x="120" y="500" width="240" height="80" as="geometry"/>
                </mxCell>
                <mxCell id="875" style="edgeStyle=none;html=1;exitX=0.75;exitY=1;exitDx=0;exitDy=0;fontColor=#FF6D6D;strokeWidth=2;" parent="1" source="876" target="882" edge="1">
                    <mxGeometry relative="1" as="geometry"/>
                </mxCell>
                <mxCell id="890" style="edgeStyle=orthogonalEdgeStyle;html=1;endArrow=none;endFill=0;strokeColor=#FFFFFF;strokeWidth=2;entryX=1;entryY=0.5;entryDx=0;entryDy=0;" parent="1" source="876" target="887" edge="1">
                    <mxGeometry relative="1" as="geometry">
                        <mxPoint x="130" y="495" as="targetPoint"/>
                        <Array as="points">
                            <mxPoint x="90" y="510"/>
                            <mxPoint x="90" y="490"/>
                        </Array>
                    </mxGeometry>
                </mxCell>
                <mxCell id="876" value="&lt;font color=&quot;#ffff6d&quot;&gt;PK&lt;/font&gt;" style="text;html=1;strokeColor=none;fillColor=none;align=center;verticalAlign=middle;whiteSpace=wrap;rounded=0;fontStyle=1;strokeWidth=2;" parent="1" vertex="1">
                    <mxGeometry x="120" y="500" width="40" height="20" as="geometry"/>
                </mxCell>
                <mxCell id="877" value="&lt;font color=&quot;#ffff6d&quot;&gt;id&lt;/font&gt;" style="text;html=1;strokeColor=none;fillColor=none;align=left;verticalAlign=middle;whiteSpace=wrap;rounded=0;strokeWidth=2;" parent="1" vertex="1">
                    <mxGeometry x="170" y="500" width="110" height="20" as="geometry"/>
                </mxCell>
                <mxCell id="878" value="&lt;font color=&quot;#ff6d6d&quot;&gt;INT&lt;/font&gt;" style="text;html=1;strokeColor=none;fillColor=none;align=left;verticalAlign=middle;whiteSpace=wrap;rounded=0;strokeWidth=2;" parent="1" vertex="1">
                    <mxGeometry x="280" y="520" width="80" height="20" as="geometry"/>
                </mxCell>
                <mxCell id="879" value="&lt;font color=&quot;#77bc65&quot;&gt;listas_eventos&lt;/font&gt;" style="rounded=0;whiteSpace=wrap;html=1;strokeWidth=2;strokeColor=#FFFFFF;fillColor=none;" parent="1" vertex="1">
                    <mxGeometry x="120" y="480" width="240" height="20" as="geometry"/>
                </mxCell>
                <mxCell id="880" value="&lt;font color=&quot;#ffff6d&quot;&gt;INT&lt;/font&gt;&lt;span style=&quot;color: rgb(255 , 255 , 109)&quot;&gt;&amp;nbsp;(NN AI)&lt;/span&gt;" style="text;html=1;strokeColor=none;fillColor=none;align=left;verticalAlign=middle;whiteSpace=wrap;rounded=0;strokeWidth=2;" parent="1" vertex="1">
                    <mxGeometry x="280" y="500" width="80" height="20" as="geometry"/>
                </mxCell>
                <mxCell id="881" value="&lt;font color=&quot;#ff6d6d&quot;&gt;id_evento&lt;/font&gt;" style="text;html=1;strokeColor=none;fillColor=none;align=left;verticalAlign=middle;whiteSpace=wrap;rounded=0;strokeWidth=2;" parent="1" vertex="1">
                    <mxGeometry x="170" y="520" width="110" height="20" as="geometry"/>
                </mxCell>
                <mxCell id="882" value="&lt;font color=&quot;#ff6d6d&quot;&gt;FK&lt;/font&gt;" style="text;html=1;strokeColor=none;fillColor=none;align=center;verticalAlign=middle;whiteSpace=wrap;rounded=0;fontStyle=1;strokeWidth=2;" parent="1" vertex="1">
                    <mxGeometry x="120" y="520" width="40" height="20" as="geometry"/>
                </mxCell>
                <mxCell id="887" value="&lt;font color=&quot;#ff6d6d&quot;&gt;INT&lt;/font&gt;" style="text;html=1;strokeColor=none;fillColor=none;align=left;verticalAlign=middle;whiteSpace=wrap;rounded=0;strokeWidth=2;" parent="1" vertex="1">
                    <mxGeometry x="-40" y="480" width="100" height="20" as="geometry"/>
                </mxCell>
                <mxCell id="888" value="&lt;font color=&quot;#ff6d6d&quot;&gt;id_lista_eventos&lt;/font&gt;" style="text;html=1;strokeColor=none;fillColor=none;align=left;verticalAlign=middle;whiteSpace=wrap;rounded=0;strokeWidth=2;" parent="1" vertex="1">
                    <mxGeometry x="-150" y="480" width="110" height="20" as="geometry"/>
                </mxCell>
                <mxCell id="889" value="&lt;font color=&quot;#ff6d6d&quot;&gt;FK&lt;/font&gt;" style="text;html=1;strokeColor=none;fillColor=none;align=center;verticalAlign=middle;whiteSpace=wrap;rounded=0;fontStyle=1;strokeWidth=2;" parent="1" vertex="1">
                    <mxGeometry x="-200" y="480" width="40" height="20" as="geometry"/>
                </mxCell>
                <mxCell id="906" value="&lt;font color=&quot;#ff6d6d&quot;&gt;FK&lt;/font&gt;" style="text;html=1;strokeColor=none;fillColor=none;align=center;verticalAlign=middle;whiteSpace=wrap;rounded=0;fontStyle=1;strokeWidth=2;" parent="1" vertex="1">
                    <mxGeometry x="440" y="580" width="40" height="20" as="geometry"/>
                </mxCell>
                <mxCell id="907" value="&lt;font color=&quot;#ff6d6d&quot;&gt;FK&lt;/font&gt;" style="text;html=1;strokeColor=none;fillColor=none;align=center;verticalAlign=middle;whiteSpace=wrap;rounded=0;fontStyle=1;strokeWidth=2;" parent="1" vertex="1">
                    <mxGeometry x="440" y="600" width="40" height="20" as="geometry"/>
                </mxCell>
                <mxCell id="908" value="&lt;font color=&quot;#ff6d6d&quot;&gt;FK&lt;/font&gt;" style="text;html=1;strokeColor=none;fillColor=none;align=center;verticalAlign=middle;whiteSpace=wrap;rounded=0;fontStyle=1;strokeWidth=2;" parent="1" vertex="1">
                    <mxGeometry x="440" y="620" width="40" height="20" as="geometry"/>
                </mxCell>
                <mxCell id="929" value="&lt;font color=&quot;#729fcf&quot;&gt;TIMESTAMP&lt;/font&gt;" style="text;html=1;strokeColor=none;fillColor=none;align=left;verticalAlign=middle;whiteSpace=wrap;rounded=0;strokeWidth=2;" parent="1" vertex="1">
                    <mxGeometry x="600" y="360" width="80" height="20" as="geometry"/>
                </mxCell>
                <mxCell id="930" value="&lt;font color=&quot;#729fcf&quot;&gt;fecha_registro&lt;/font&gt;" style="text;html=1;strokeColor=none;fillColor=none;align=left;verticalAlign=middle;whiteSpace=wrap;rounded=0;strokeWidth=2;" parent="1" vertex="1">
                    <mxGeometry x="490" y="360" width="110" height="20" as="geometry"/>
                </mxCell>
                <mxCell id="931" value="&lt;font color=&quot;#729fcf&quot;&gt;fecha_registro&lt;/font&gt;" style="text;html=1;strokeColor=none;fillColor=none;align=left;verticalAlign=middle;whiteSpace=wrap;rounded=0;strokeWidth=2;" parent="1" vertex="1">
                    <mxGeometry x="-150" y="560" width="110" height="20" as="geometry"/>
                </mxCell>
                <mxCell id="932" value="&lt;font color=&quot;#729fcf&quot;&gt;TIMESTAMP&lt;/font&gt;" style="text;html=1;strokeColor=none;fillColor=none;align=left;verticalAlign=middle;whiteSpace=wrap;rounded=0;strokeWidth=2;" parent="1" vertex="1">
                    <mxGeometry x="-40" y="560" width="80" height="20" as="geometry"/>
                </mxCell>
                <mxCell id="934" value="&lt;span style=&quot;color: rgb(114 , 159 , 207)&quot;&gt;nombre_evento&lt;/span&gt;" style="text;html=1;strokeColor=none;fillColor=none;align=left;verticalAlign=middle;whiteSpace=wrap;rounded=0;strokeWidth=2;" parent="1" vertex="1">
                    <mxGeometry x="170" y="540" width="110" height="20" as="geometry"/>
                </mxCell>
                <mxCell id="935" value="&lt;span style=&quot;color: rgb(114 , 159 , 207)&quot;&gt;fecha_evento&lt;/span&gt;" style="text;html=1;strokeColor=none;fillColor=none;align=left;verticalAlign=middle;whiteSpace=wrap;rounded=0;strokeWidth=2;" parent="1" vertex="1">
                    <mxGeometry x="170" y="560" width="110" height="20" as="geometry"/>
                </mxCell>
                <mxCell id="936" value="&lt;font color=&quot;#729fcf&quot;&gt;DATETIME&lt;/font&gt;" style="text;html=1;strokeColor=none;fillColor=none;align=left;verticalAlign=middle;whiteSpace=wrap;rounded=0;strokeWidth=2;" parent="1" vertex="1">
                    <mxGeometry x="280" y="560" width="80" height="20" as="geometry"/>
                </mxCell>
                <mxCell id="937" value="&lt;font color=&quot;#729fcf&quot;&gt;VARCHAR&lt;/font&gt;" style="text;html=1;strokeColor=none;fillColor=none;align=left;verticalAlign=middle;whiteSpace=wrap;rounded=0;strokeWidth=2;" parent="1" vertex="1">
                    <mxGeometry x="280" y="540" width="80" height="20" as="geometry"/>
                </mxCell>
                <mxCell id="943" value="&lt;font color=&quot;#729fcf&quot;&gt;fecha_registro&lt;/font&gt;" style="text;html=1;strokeColor=none;fillColor=none;align=left;verticalAlign=middle;whiteSpace=wrap;rounded=0;strokeWidth=2;" parent="1" vertex="1">
                    <mxGeometry x="490" y="700" width="110" height="20" as="geometry"/>
                </mxCell>
                <mxCell id="944" value="&lt;font color=&quot;#729fcf&quot;&gt;TIMESTAMP&lt;/font&gt;" style="text;html=1;strokeColor=none;fillColor=none;align=left;verticalAlign=middle;whiteSpace=wrap;rounded=0;strokeWidth=2;" parent="1" vertex="1">
                    <mxGeometry x="600" y="700" width="80" height="20" as="geometry"/>
                </mxCell>
                <mxCell id="945" value="" style="shape=internalStorage;whiteSpace=wrap;html=1;backgroundOutline=1;dx=40;dy=40;strokeWidth=2;strokeColor=#FFFFFF;fillColor=none;" parent="1" vertex="1">
                    <mxGeometry x="760" y="500" width="240" height="100" as="geometry"/>
                </mxCell>
                <mxCell id="946" style="edgeStyle=none;html=1;exitX=0.75;exitY=1;exitDx=0;exitDy=0;fontColor=#FF6D6D;strokeWidth=2;" parent="1" edge="1">
                    <mxGeometry relative="1" as="geometry">
                        <mxPoint x="790" y="540" as="targetPoint"/>
                        <mxPoint x="790" y="540" as="sourcePoint"/>
                    </mxGeometry>
                </mxCell>
                <mxCell id="947" value="&lt;font color=&quot;#ffff6d&quot;&gt;PK&lt;/font&gt;" style="text;html=1;strokeColor=none;fillColor=none;align=center;verticalAlign=middle;whiteSpace=wrap;rounded=0;fontStyle=1;strokeWidth=2;" parent="1" vertex="1">
                    <mxGeometry x="760" y="500" width="40" height="20" as="geometry"/>
                </mxCell>
                <mxCell id="948" value="&lt;font color=&quot;#ffff6d&quot;&gt;id&lt;/font&gt;" style="text;html=1;strokeColor=none;fillColor=none;align=left;verticalAlign=middle;whiteSpace=wrap;rounded=0;strokeWidth=2;" parent="1" vertex="1">
                    <mxGeometry x="810" y="500" width="110" height="20" as="geometry"/>
                </mxCell>
                <mxCell id="949" value="&lt;font color=&quot;#77bc65&quot;&gt;agencias_seguros&lt;/font&gt;" style="rounded=0;whiteSpace=wrap;html=1;strokeWidth=2;strokeColor=#FFFFFF;fillColor=none;" parent="1" vertex="1">
                    <mxGeometry x="760" y="480" width="240" height="20" as="geometry"/>
                </mxCell>
                <mxCell id="966" style="edgeStyle=orthogonalEdgeStyle;html=1;entryX=1;entryY=0.5;entryDx=0;entryDy=0;endArrow=none;endFill=0;strokeColor=#FFFFFF;strokeWidth=2;" parent="1" source="950" target="957" edge="1">
                    <mxGeometry relative="1" as="geometry">
                        <Array as="points">
                            <mxPoint x="1030" y="510"/>
                            <mxPoint x="1030" y="690"/>
                        </Array>
                    </mxGeometry>
                </mxCell>
                <mxCell id="950" value="&lt;font color=&quot;#ffff6d&quot;&gt;INT&lt;/font&gt;&lt;span style=&quot;color: rgb(255 , 255 , 109)&quot;&gt;&amp;nbsp;(NN AI)&lt;/span&gt;" style="text;html=1;strokeColor=none;fillColor=none;align=left;verticalAlign=middle;whiteSpace=wrap;rounded=0;strokeWidth=2;" parent="1" vertex="1">
                    <mxGeometry x="920" y="500" width="80" height="20" as="geometry"/>
                </mxCell>
                <mxCell id="951" value="&lt;font color=&quot;#729fcf&quot;&gt;nombre_empresa&lt;/font&gt;" style="text;html=1;strokeColor=none;fillColor=none;align=left;verticalAlign=middle;whiteSpace=wrap;rounded=0;strokeWidth=2;" parent="1" vertex="1">
                    <mxGeometry x="810" y="540" width="110" height="20" as="geometry"/>
                </mxCell>
                <mxCell id="952" value="&lt;font color=&quot;#729fcf&quot;&gt;VARCHAR&lt;/font&gt;" style="text;html=1;strokeColor=none;fillColor=none;align=left;verticalAlign=middle;whiteSpace=wrap;rounded=0;strokeWidth=2;" parent="1" vertex="1">
                    <mxGeometry x="920" y="540" width="80" height="20" as="geometry"/>
                </mxCell>
                <mxCell id="953" value="&lt;font color=&quot;#729fcf&quot;&gt;presupuesto&lt;/font&gt;" style="text;html=1;strokeColor=none;fillColor=none;align=left;verticalAlign=middle;whiteSpace=wrap;rounded=0;strokeWidth=2;" parent="1" vertex="1">
                    <mxGeometry x="810" y="560" width="110" height="20" as="geometry"/>
                </mxCell>
                <mxCell id="954" value="&lt;font color=&quot;#729fcf&quot;&gt;INT&lt;/font&gt;" style="text;html=1;strokeColor=none;fillColor=none;align=left;verticalAlign=middle;whiteSpace=wrap;rounded=0;strokeWidth=2;" parent="1" vertex="1">
                    <mxGeometry x="920" y="560" width="80" height="20" as="geometry"/>
                </mxCell>
                <mxCell id="955" value="&lt;font color=&quot;#ff6d6d&quot;&gt;FK&lt;/font&gt;" style="text;html=1;strokeColor=none;fillColor=none;align=center;verticalAlign=middle;whiteSpace=wrap;rounded=0;fontStyle=1;strokeWidth=2;" parent="1" vertex="1">
                    <mxGeometry x="760" y="680" width="40" height="20" as="geometry"/>
                </mxCell>
                <mxCell id="956" value="&lt;font color=&quot;#ff6d6d&quot;&gt;id_agencia_seguros&lt;/font&gt;" style="text;html=1;strokeColor=none;fillColor=none;align=left;verticalAlign=middle;whiteSpace=wrap;rounded=0;strokeWidth=2;" parent="1" vertex="1">
                    <mxGeometry x="810" y="680" width="110" height="20" as="geometry"/>
                </mxCell>
                <mxCell id="957" value="&lt;span style=&quot;color: rgb(255 , 109 , 109)&quot;&gt;INT&lt;/span&gt;" style="text;html=1;strokeColor=none;fillColor=none;align=left;verticalAlign=middle;whiteSpace=wrap;rounded=0;strokeWidth=2;" parent="1" vertex="1">
                    <mxGeometry x="920" y="680" width="80" height="20" as="geometry"/>
                </mxCell>
                <mxCell id="960" value="&lt;font color=&quot;#ff6d6d&quot;&gt;id_lista_agencias&lt;/font&gt;" style="text;html=1;strokeColor=none;fillColor=none;align=left;verticalAlign=middle;whiteSpace=wrap;rounded=0;strokeWidth=2;" parent="1" vertex="1">
                    <mxGeometry x="810" y="520" width="110" height="20" as="geometry"/>
                </mxCell>
                <mxCell id="961" value="&lt;span style=&quot;color: rgb(255 , 109 , 109)&quot;&gt;INT&lt;/span&gt;" style="text;html=1;strokeColor=none;fillColor=none;align=left;verticalAlign=middle;whiteSpace=wrap;rounded=0;strokeWidth=2;" parent="1" vertex="1">
                    <mxGeometry x="920" y="520" width="80" height="20" as="geometry"/>
                </mxCell>
                <mxCell id="962" value="&lt;font color=&quot;#ff6d6d&quot;&gt;FK&lt;/font&gt;" style="text;html=1;strokeColor=none;fillColor=none;align=center;verticalAlign=middle;whiteSpace=wrap;rounded=0;fontStyle=1;strokeWidth=2;" parent="1" vertex="1">
                    <mxGeometry x="760" y="520" width="40" height="20" as="geometry"/>
                </mxCell>
                <mxCell id="967" value="&lt;font color=&quot;#729fcf&quot;&gt;fecha_registro&lt;/font&gt;" style="text;html=1;strokeColor=none;fillColor=none;align=left;verticalAlign=middle;whiteSpace=wrap;rounded=0;strokeWidth=2;" parent="1" vertex="1">
                    <mxGeometry x="810" y="580" width="110" height="20" as="geometry"/>
                </mxCell>
                <mxCell id="968" value="&lt;font color=&quot;#729fcf&quot;&gt;TIMESTAMP&lt;/font&gt;" style="text;html=1;strokeColor=none;fillColor=none;align=left;verticalAlign=middle;whiteSpace=wrap;rounded=0;strokeWidth=2;" parent="1" vertex="1">
                    <mxGeometry x="920" y="580" width="80" height="20" as="geometry"/>
                </mxCell>
                <mxCell id="969" value="&lt;font color=&quot;#729fcf&quot;&gt;fecha_registro&lt;/font&gt;" style="text;html=1;strokeColor=none;fillColor=none;align=left;verticalAlign=middle;whiteSpace=wrap;rounded=0;strokeWidth=2;" parent="1" vertex="1">
                    <mxGeometry x="810" y="700" width="110" height="20" as="geometry"/>
                </mxCell>
                <mxCell id="970" value="&lt;font color=&quot;#729fcf&quot;&gt;TIMESTAMP&lt;/font&gt;" style="text;html=1;strokeColor=none;fillColor=none;align=left;verticalAlign=middle;whiteSpace=wrap;rounded=0;strokeWidth=2;" parent="1" vertex="1">
                    <mxGeometry x="920" y="700" width="80" height="20" as="geometry"/>
                </mxCell>
            </root>
        </mxGraphModel>
    </diagram>
</mxfile>